<svg width="1537" height="619" viewBox="0 0 1537 619" fill="none" xmlns="http://www.w3.org/2000/svg">
<g opacity="0.0245071">
<path fill-rule="evenodd" clip-rule="evenodd" d="M892.331 619C894.483 618.133 896.143 617.019 897.126 615.244C904.689 601.169 912.928 587.383 918.831 572.937C923.319 562.082 926.639 551.103 930.82 540.247C935.554 527.411 944.039 516.432 957.136 507.021C966.666 500.17 976.995 493.896 985.972 486.714C1004.48 471.731 1012.78 454.024 1015.42 434.625C1017.02 422.16 1018.44 409.736 1021.76 397.519C1028.95 371.928 1033.44 346.132 1035.84 320.128C1036.57 311.378 1038.36 302.71 1043.15 294.538C1049.3 284.137 1059.75 276.79 1075.8 274.396C1079.8 273.859 1083.67 273.57 1087.55 273.57C1100.33 273.57 1112.26 276.707 1123.14 282.32C1140.79 291.401 1151.61 304.155 1158.81 318.642C1165.51 331.933 1166.86 345.925 1167.29 359.876C1167.72 370.154 1168.4 380.472 1170.98 390.708C1176.7 413.451 1191.95 432.148 1217.52 446.347C1229.08 452.868 1241.5 458.317 1253.8 464.054C1287.19 479.738 1292.04 505.989 1284.85 528.484C1283.68 531.786 1280.92 534.51 1277.9 537.152C1269.85 544.045 1259.03 545.82 1247.41 546.934C1239.47 547.636 1231.54 547.801 1223.61 547.801C1216.54 547.801 1209.59 547.636 1202.58 547.636C1200.62 547.636 1198.77 547.677 1196.87 547.718C1187.95 547.883 1179.28 548.461 1170.67 549.988C1135.75 556.221 1107.04 569.842 1082.69 588.457C1073.1 595.803 1066.64 604.554 1061.48 613.841C1060.43 615.698 1059.57 617.473 1062.15 619H1113.92C1116.87 618.051 1118.35 616.235 1119.76 614.336C1126.59 605.379 1134.64 597.248 1145.89 590.809C1167.23 578.674 1191.39 574.836 1216.91 574.836C1222.07 574.836 1227.3 575.001 1232.53 575.249C1248.39 576.157 1264.25 577.065 1280.05 578.22C1290.51 579.005 1300.84 579.747 1311.04 581.646C1319.1 583.132 1324.63 586.434 1327.64 592.089C1330.9 598.28 1332.75 604.719 1333.98 611.199C1334.59 614.006 1334.47 616.936 1337.85 619H1387.35C1389.68 617.844 1391.34 616.276 1393.06 614.707C1399.21 608.764 1406.53 603.935 1416.24 601.087C1424.97 598.528 1434.07 596.835 1443.11 595.143C1457.5 592.46 1472.01 590.396 1485.66 586.145C1499.19 582.018 1511.24 576.611 1518.92 567.159C1530.18 553.29 1533.93 538.39 1530.67 522.582C1525.81 499.715 1510.07 482.421 1480.8 471.649C1459.47 463.724 1436.9 458.482 1413.97 454.024C1398.23 450.928 1382.3 448.411 1367.12 443.87C1346.95 437.844 1334.65 427.278 1330.29 411.8C1327.77 403.008 1328.26 394.175 1328.14 385.301C1328.14 377.624 1330.16 370.071 1333.18 362.724C1342.89 338.289 1365.15 320.912 1394.42 307.622C1416 297.84 1439.55 290.741 1462.6 282.94C1480.8 276.79 1498.63 270.309 1515.11 262.096C1523.6 257.886 1531.65 253.263 1537 246.659V167.659C1536.14 167.37 1535.4 167.246 1534.66 167.246C1532.14 167.246 1530.48 168.98 1528.64 169.929C1516.96 176.822 1505.4 183.88 1494.27 191.227C1474.22 204.517 1456.27 219.417 1438.81 234.524C1424.61 246.7 1409.79 258.422 1393.19 268.947C1376.65 279.39 1359.68 289.544 1344.18 300.894C1330.9 310.718 1320.2 321.738 1311.04 333.708C1298.93 349.681 1293.4 367.058 1288.97 384.641C1286.76 393.515 1284.85 402.389 1279.75 410.727C1275.75 417.166 1268.74 420.674 1259.76 420.674C1257.98 420.674 1256.2 420.55 1254.29 420.303C1249.07 419.56 1244.21 418.115 1239.6 416.258C1224.84 410.685 1217.4 401.027 1211.81 390.378C1204.92 377.377 1204.06 363.632 1202.28 350.011C1199.51 327.517 1190.04 306.673 1173.44 287.521C1161.7 273.9 1146.57 262.467 1126.96 254.377C1109.31 247.072 1090.56 244.389 1071.37 244.389C1062.71 244.389 1053.91 244.925 1045.06 245.875C1026.61 247.773 1012.66 254.831 1006.82 268.204C1003.8 275.015 1002.82 282.155 1002.2 289.213C1001.22 302.339 1001.1 315.464 999.991 328.631C998.576 343.449 994.273 357.854 987.017 371.722C978.655 387.654 968.08 402.719 956.582 417.537C945.453 432.148 930.943 444.325 909.608 451.671C899.524 455.18 891.593 457.367 884.46 457.367C875.176 457.367 867.368 453.653 858.083 444.159C844.065 429.713 828.817 415.927 812.093 403.05C795.184 389.883 775.94 378.532 756.018 367.718C738.249 358.266 722.571 347.411 711.872 333.295C705.109 324.338 699.329 315.01 692.197 306.177C677.871 288.512 658.626 275.139 630.774 268.7C611.898 264.366 592.469 261.27 573.654 256.482C542.112 248.392 517.334 234.896 505.344 211.534C498.95 199.234 495.753 186.645 499.073 173.602C502.024 162.376 509.525 152.635 519.978 144.132C541.559 126.549 561.357 108.058 578.819 88.2871C583.799 82.5498 589.148 77.019 595.481 72.0247C605.319 64.2651 617.247 59.1057 632.249 59.1057H633.848C656.782 59.6835 675.35 67.5258 691.828 78.1747C707.015 87.9569 716.361 100.793 725.829 113.465C738.926 130.965 755.527 146.526 776.493 159.362C807.174 178.06 838.162 196.551 868.905 215.125C889.687 227.714 913.235 235.762 940.658 235.762C942.625 235.762 944.531 235.721 946.622 235.639C961.747 235.019 975.52 232.171 986.341 223.669C993.043 218.427 998.269 212.607 1002.7 206.375C1013.76 191.02 1023.79 175.212 1037.62 160.931C1047.7 150.571 1059.39 141.49 1075 135.217C1086.32 130.635 1098 127.994 1109.99 127.994C1117.24 127.994 1124.62 128.943 1132.12 131.089C1139.32 133.153 1146.26 135.423 1153.03 138.188C1167.41 144.049 1181.49 150.488 1196.62 155.565C1212.61 160.89 1229.08 163.738 1246.11 163.738C1253.25 163.738 1260.5 163.242 1267.82 162.21C1300.28 157.711 1322.97 141.119 1328.81 117.799C1331.27 107.975 1330.78 98.0692 1329.06 88.2458C1325.86 68.0211 1306.74 54.1114 1280.18 50.149C1258.9 46.9709 1237.32 47.5487 1215.93 46.4756C1206.33 46.0215 1196.74 46.6407 1187.27 45.6088C1163.05 43.2561 1142.45 36.2807 1127.69 21.7519C1122.16 16.3861 1117.98 10.6077 1114.11 4.62279C1112.88 2.4765 1111.09 0.990598 1108.33 0H1041.92C1040.51 0.990598 1039.28 1.9812 1039.28 3.50837C1039.28 6.93419 1037.99 10.36 1038.11 13.9096C1038.3 27.9844 1039.16 42.0591 1042.78 55.9275C1045.18 65.1318 1042.42 73.4281 1035.96 81.3941C1028.03 91.135 1021.39 101.33 1015.24 111.814C1005.59 128.076 996.978 144.751 985.357 160.436C978.409 169.764 970.416 178.762 959.779 186.274C949.511 193.703 937.03 197.831 922.704 197.831C921.905 197.831 921.167 197.831 920.306 197.789C907.456 197.253 895.466 194.24 884.338 189.411C863.617 180.33 844.434 169.929 824.759 159.775C809.326 151.85 795.369 142.729 782.949 132.451C768.746 120.688 759.523 106.819 751.161 92.786C737.573 70.0848 718.267 50.438 694.718 32.6485C683.958 24.476 674.612 15.6019 670.554 4.41642C669.878 2.4765 668.525 1.03187 666.189 0H590.808C589.025 1.23825 587.181 2.3114 586.136 4.00367C580.11 14.7764 569.719 23.0314 556.746 29.8005C541.559 37.7253 526.249 45.4024 512.415 54.5242C493.847 67.0717 477.615 80.8576 462.797 95.5927C450.008 108.553 435.129 119.78 416.806 128.902C407.645 133.524 399.222 138.931 391.29 144.586C371.553 158.454 354.153 173.685 335.954 188.503C325.009 197.459 314.987 207.118 307.425 217.849C291.623 239.766 287.135 263.747 285.536 287.934C284.245 304.444 287.995 320.624 293.713 336.514C298.079 348.608 301.829 360.743 301.215 373.455C300.354 392.648 293.222 410.438 278.527 426.576C263.955 442.632 242.619 449.236 217.534 449.236C216.242 449.236 214.828 449.236 213.537 449.154C195.03 448.658 177.261 444.861 160.66 438.959C145.412 433.552 131.516 426.741 117.805 419.642C85.464 402.885 49.2494 392.855 10.145 387.819C8.36195 387.654 6.45592 387.159 4.4884 387.159C2.95128 387.159 1.47564 387.489 0 388.438V432.85C1.41415 433.882 2.76682 434.625 4.79582 434.625H4.85731H5.22622C10.5754 434.625 15.8016 435.45 21.0893 435.574C33.8782 435.987 46.3596 437.308 58.7796 439.702C79.0081 443.416 97.5766 450.351 116.698 456.253C147.441 465.746 179.044 471.442 211.877 471.442C220.608 471.442 229.4 471.029 238.254 470.204C266.291 467.686 287.565 457.367 302.198 440.28C316.34 423.811 324.271 405.609 329.805 386.911C333.494 374.818 334.97 362.476 332.449 350.094C330.297 339.569 326.177 329.333 322.734 319.096C317.262 302.752 315.418 286.365 318.676 269.567C325.009 237.083 347.943 212.607 387.785 196.923C397.561 193.125 406.661 190.979 415.331 190.979C427.628 190.979 438.879 195.23 449.455 204.93C459.6 214.01 467.716 224.04 476.508 233.657C494.093 252.644 517.641 266.43 546.416 275.84C565.169 282.073 584.906 286.53 603.905 292.02C634.955 301.101 654.876 316.62 660.163 340.807C662.684 352.158 663.73 363.467 663.422 374.9C663.238 379.317 664.037 383.774 665.636 388.026C668.956 396.817 676.764 401.935 689.492 403.421C694.718 404.04 699.883 404.123 705.109 404.123H710.581H712.487C755.404 404.247 787.806 431.901 780.981 462.362C776.923 480.481 766.963 497.074 756.818 513.749C748.886 526.627 740.155 539.216 734.253 552.795C728.35 566.54 728.227 579.665 740.401 591.965C746.611 598.197 754.481 603.109 762.597 607.814C769.668 611.736 775.202 617.143 784.24 619H892.331ZM784.609 617.349C779.014 616.152 774.833 613.345 770.344 610.373C768.377 609.094 766.348 607.773 764.257 606.576C756.572 602.16 748.579 597.248 742.43 591.016C731.916 580.449 730.072 568.438 736.589 553.249C741.139 542.724 747.533 532.653 753.743 522.829C755.526 520.064 757.371 517.216 759.093 514.368C768.5 498.931 779.198 481.389 783.379 462.609C786.945 446.801 780.366 430.993 765.303 419.229C751.591 408.498 732.839 402.554 712.487 402.472H710.581H707.814H705.109C700.497 402.472 695.148 402.43 689.922 401.77C678.24 400.449 671.108 395.785 668.033 387.654C666.435 383.444 665.697 379.151 665.881 374.9C666.189 363.137 665.144 351.827 662.623 340.559C657.397 316.702 638.459 300.316 604.888 290.493C597.818 288.47 590.685 286.572 583.492 284.673C571.564 281.495 559.267 278.234 547.462 274.313C518.625 264.902 495.445 250.91 478.598 232.832C476.201 230.19 473.926 227.59 471.589 224.99C465.318 217.932 458.923 210.626 451.422 203.939C440.662 194.116 428.857 189.328 415.33 189.328C406.538 189.328 397.131 191.351 386.494 195.519C346.406 211.328 322.734 236.175 316.217 269.36C313.143 285.457 314.434 301.844 320.336 319.427C321.259 322.192 322.181 324.834 323.165 327.558C325.747 334.987 328.452 342.664 329.989 350.3C332.264 361.444 331.465 373.29 327.407 386.581C320.828 408.539 312.159 425.379 300.046 439.454C285.597 456.418 264.692 466.159 237.885 468.553C229.339 469.378 220.546 469.791 211.877 469.791C181.134 469.791 150.331 464.879 117.682 454.726C113.071 453.281 108.521 451.795 103.909 450.351C89.6449 445.769 75.0115 441.022 59.4558 438.092C47.4663 435.781 34.8619 434.377 21.2122 433.923C18.8758 433.841 16.6008 433.676 14.2644 433.469C11.3746 433.222 8.36187 432.933 4.79574 432.933C4.11941 432.933 3.44307 432.809 2.45931 432.231V389.223C3.07416 388.934 3.7505 388.81 4.48832 388.81C5.53356 388.81 6.64029 389.016 7.74702 389.181C8.42335 389.305 9.09968 389.429 9.65305 389.429C50.6635 394.671 85.5254 404.99 116.329 420.963C131.701 428.929 144.981 435.244 159.553 440.403C177.384 446.801 195.522 450.309 213.414 450.846C214.767 450.846 216.181 450.887 217.534 450.887C245.202 450.887 266.475 443.004 280.679 427.443C295.066 411.635 302.752 393.433 303.674 373.497C304.289 360.371 300.292 347.824 296.173 336.102C289.471 317.734 286.888 302.421 287.995 288.016C289.409 266.595 293.099 241.541 309.638 218.551C316.34 209.057 325.317 199.853 337.859 189.576C342.286 185.985 346.59 182.394 350.894 178.803C364.298 167.659 378.194 156.184 393.134 145.7C402.234 139.22 410.227 134.309 418.282 130.222C435.866 121.472 451.053 110.493 464.887 96.542C480.566 80.8988 496.614 67.5258 514.137 55.7211C526.065 47.8376 539.346 40.9034 552.257 34.2169L558.221 31.08C572.855 23.4442 582.754 14.7764 588.411 4.58152C589.087 3.54964 590.255 2.72415 591.546 1.85737L591.792 1.651H665.39C666.804 2.39395 667.665 3.38455 668.156 4.82917C672.645 17.1291 683.097 26.3747 692.873 33.7216C717.836 52.543 736.159 72.1073 748.886 93.4051C757.002 107.067 766.471 121.39 780.981 133.483C793.463 143.802 807.789 153.13 823.283 161.055L833.612 166.462C849.475 174.717 865.892 183.261 882.923 190.773C894.974 196.015 907.456 198.904 920.183 199.44C921.044 199.482 921.843 199.482 922.704 199.482C937.337 199.482 950.434 195.395 961.562 187.388C970.97 180.784 979.024 172.694 987.57 161.137C996.178 149.539 1003.25 137.198 1010.07 125.269C1012.53 121.018 1014.99 116.684 1017.51 112.433C1024.52 100.422 1031.16 90.8048 1038.11 82.1784C1045.24 73.3455 1047.58 64.6778 1045.18 55.6799C1041.43 41.1924 1040.76 26.4572 1040.51 13.8684C1040.51 12.1348 1040.82 10.4426 1041.12 8.62646C1041.49 6.97546 1041.8 5.24192 1041.8 3.50837C1041.8 2.76542 1042.17 2.3114 1043.03 1.651H1107.65C1109.56 2.43522 1110.85 3.50837 1111.89 5.28319C1116.5 12.5889 1120.81 17.9133 1125.67 22.7012C1139.81 36.5696 1159.85 44.6182 1186.9 47.2185C1192.87 47.8789 1198.77 47.9202 1204.55 47.9202C1208.24 47.9202 1211.99 47.9615 1215.74 48.1266C1222.32 48.4568 1229.02 48.6631 1235.66 48.8282C1250.17 49.1584 1265.17 49.5712 1279.69 51.7588C1306 55.7211 1323.52 69.4244 1326.66 88.4522C1328.63 99.844 1328.57 109.09 1326.35 117.551C1320.7 140.17 1298.56 156.267 1267.33 160.601C1260.26 161.591 1253.06 162.087 1246.11 162.087C1229.88 162.087 1213.59 159.404 1197.79 154.079C1187.03 150.488 1176.58 146.113 1166.49 141.862C1162.43 140.128 1158.38 138.395 1154.26 136.744C1147.86 134.143 1140.91 131.791 1133.11 129.562C1125.54 127.416 1117.73 126.301 1109.99 126.301C1098.06 126.301 1086.25 128.778 1073.71 133.813C1059.63 139.468 1047.46 147.805 1035.53 160.064C1024.77 171.167 1016.1 183.384 1007.86 195.23C1005.46 198.697 1003 202.165 1000.48 205.673C995.809 212.236 990.645 217.725 984.558 222.596C975.397 229.654 963.345 233.286 946.437 233.988C944.408 234.07 942.502 234.111 940.658 234.111C916.002 234.111 893.068 227.507 870.565 213.928C859.497 207.2 848.369 200.514 837.301 193.868C817.503 181.981 797.828 170.135 778.091 158.165C758.355 146.031 741.508 130.759 728.043 112.722L727.305 111.772C718.144 99.4313 708.675 86.7186 693.488 77.019C673.813 64.2238 654.876 57.9913 633.909 57.4547H632.249C617.8 57.4547 605.134 61.8298 593.575 70.9929C588.042 75.368 582.692 80.6099 576.728 87.4203C560.066 106.283 540.883 124.526 518.072 143.1C506.697 152.346 499.503 162.499 496.675 173.313C493.539 185.407 495.568 197.707 503.008 212.071C514.137 233.822 537.009 248.846 572.793 258.01C583.738 260.816 595.051 263.086 606.057 265.274C613.865 266.842 622.043 268.452 629.974 270.268C654.999 276.047 674.674 288.058 690.045 306.92C694.103 312.038 697.854 317.322 701.42 322.481C704.125 326.361 706.83 330.241 709.72 334.038C719.312 346.709 733.576 357.854 754.481 368.998C778.522 382.082 795.738 392.855 810.187 404.081C826.173 416.423 841.175 429.796 856.054 445.067C865.523 454.85 874.069 458.977 884.46 458.977C892.207 459.018 900.631 456.624 910.714 453.157C930.328 446.388 946.007 434.996 958.796 418.363C972.322 400.821 982.037 386.168 989.354 372.217C996.67 358.266 1001.04 343.614 1002.45 328.755C1003.06 321.697 1003.31 314.597 1003.62 307.746C1003.86 301.596 1004.17 295.405 1004.66 289.296C1005.22 283.022 1006.08 275.675 1009.15 268.7C1014.44 256.565 1026.67 249.424 1045.43 247.484C1054.77 246.535 1063.26 246.04 1071.37 246.04C1092.03 246.04 1109.8 249.218 1125.67 255.781C1143.8 263.293 1159.17 274.231 1171.35 288.347C1187.52 306.962 1197.11 327.764 1199.88 350.135L1200.55 355.501C1201.91 367.264 1203.38 379.44 1209.47 390.956C1214.63 400.697 1222.01 411.511 1238.37 417.702C1243.9 419.89 1248.76 421.169 1253.74 421.912C1255.77 422.201 1257.8 422.366 1259.76 422.366C1269.72 422.366 1277.66 418.445 1282.02 411.346C1286.82 403.504 1288.85 395.125 1290.88 386.994L1291.37 384.889C1295.36 369.122 1300.65 350.961 1313.26 334.409C1322.97 321.697 1333.73 311.089 1346.03 302.009C1358.14 293.134 1371.42 284.797 1384.27 276.79L1394.91 270.144C1409.6 260.816 1423.68 250.126 1440.78 235.515C1460.2 218.716 1477.05 204.971 1495.99 192.382C1505.58 186.026 1516.53 179.298 1530.24 171.208C1530.73 170.961 1531.16 170.589 1531.77 170.259C1532.76 169.599 1533.68 168.98 1534.54 168.897V246.246C1529.38 252.479 1521.44 256.936 1513.64 260.734C1496.79 269.154 1478.59 275.716 1461.56 281.454C1457.01 282.981 1452.52 284.467 1448.09 285.953C1429.59 292.02 1410.59 298.294 1393 306.26C1360.17 321.201 1339.88 339.527 1330.78 362.311C1327.4 370.69 1325.74 378.202 1325.74 385.301V389.429C1325.74 396.817 1325.74 404.535 1327.89 412.13C1332.32 427.938 1345.23 439.165 1366.19 445.356C1378 448.947 1390.48 451.341 1402.59 453.57C1406.16 454.231 1409.73 454.891 1413.23 455.593C1431.98 459.266 1456.58 464.549 1479.63 473.093C1507.43 483.412 1523.35 499.633 1528.21 522.829C1531.4 538.349 1527.59 552.96 1516.77 566.374C1510.44 574.175 1500.42 579.83 1484.68 584.659C1473.85 587.961 1462.17 590.066 1450.92 592.089C1448.09 592.543 1445.26 593.038 1442.44 593.575L1441.82 593.698C1433.03 595.349 1423.93 597.083 1415.32 599.559C1406.04 602.325 1398.11 606.906 1390.91 613.923C1389.5 615.203 1388.14 616.441 1386.48 617.349H1338.9C1337.3 616.111 1336.99 614.377 1336.74 612.396L1336.44 610.993C1334.96 603.192 1332.87 597.042 1329.98 591.511C1326.78 585.485 1320.82 581.77 1311.78 580.078C1301.45 578.138 1290.88 577.354 1280.3 576.611C1264.13 575.372 1247.9 574.464 1232.77 573.598C1227.24 573.35 1221.83 573.185 1216.91 573.185C1187.03 573.185 1163.97 578.385 1144.23 589.571C1134.03 595.432 1125.6 603.027 1117.61 613.552C1116.26 615.285 1115.21 616.606 1113.37 617.349H1063.2C1062.58 616.771 1062.83 616.111 1063.81 614.46C1069.71 603.77 1076.29 595.845 1084.59 589.488C1110.42 569.759 1138.76 557.335 1171.29 551.598C1178.79 550.236 1186.9 549.534 1196.87 549.369H1202.58C1206.09 549.369 1209.59 549.369 1213.1 549.369C1216.54 549.41 1220.04 549.452 1223.61 549.452C1230.19 549.452 1238.92 549.369 1247.77 548.544C1258.66 547.512 1270.95 545.778 1279.87 538.142C1282.88 535.501 1285.96 532.488 1287.25 528.773C1291.49 515.441 1296.96 482.297 1255.21 462.733L1248.51 459.638C1238.67 455.015 1228.53 450.351 1219.06 445.109C1194.41 431.323 1179.03 412.956 1173.44 390.461C1170.8 379.977 1170.18 369.576 1169.75 359.835C1169.32 346.998 1168.27 332.181 1161.2 318.106C1152.9 301.555 1140.98 289.42 1124.56 281.041C1112.94 274.974 1100.46 271.919 1087.55 271.919C1083.49 271.919 1079.43 272.208 1075.19 272.786C1059.38 275.18 1047.7 282.279 1040.88 293.96C1035.47 303.082 1033.99 312.658 1033.32 320.004C1030.79 347.576 1026.24 372.836 1019.36 397.23C1016.35 408.044 1014.93 419.188 1013.52 430.002L1012.9 434.46C1010.07 455.51 1000.67 472.185 984.066 485.682C978.532 490.098 972.445 494.226 966.42 498.23C962.669 500.747 958.98 503.265 955.291 505.907C942.133 515.317 933.402 526.42 928.484 539.835C926.762 544.21 925.225 548.626 923.688 553.043C921.413 559.44 919.138 566.044 916.433 572.483C912.006 583.462 905.98 594.235 900.262 604.719C898.417 608.021 896.634 611.323 894.851 614.707C894.236 615.781 893.253 616.565 891.593 617.349H784.609Z" fill="#003CA7"/>
<mask id="mask0" style="mask-type:alpha" maskUnits="userSpaceOnUse" x="0" y="0" width="308" height="246">
<path fill-rule="evenodd" clip-rule="evenodd" d="M0 0H307.107V245.831H0V0Z" fill="white"/>
</mask>
<g mask="url(#mask0)">
<path fill-rule="evenodd" clip-rule="evenodd" d="M5.48084 245.831C6.03575 245.831 6.65231 245.831 7.20721 245.748C19.5384 244.676 31.8079 243.439 44.0158 241.913C86.0652 236.469 121.579 222.818 149.263 199.394C156.291 193.455 162.642 187.145 168.068 180.423C183.297 161.246 188.414 140.214 191.312 118.686C193.1 105.2 194.765 91.7147 200.375 78.6002C205.739 66.1455 213.94 54.8456 228.984 46.6387C242.486 39.2567 257.345 33.4005 271.588 26.967C284.351 21.2758 295.202 14.1412 304.512 5.81056C306.239 4.28466 308.582 2.34635 305.869 0.0368766H246.062C240.143 1.4803 233.855 1.8927 227.689 3.0062C223.496 3.83101 219.304 4.24342 215.111 4.24342C207.527 4.24342 200.129 2.84124 192.977 0.0368766C130.088 0.0368766 67.0135 0.0368766 4.12441 -0.00436401C0.733334 -0.00436401 -0.0681933 0.531763 -0.00653733 2.92372C0.240087 11.3368 0.0551186 19.8324 0.0551186 28.2454C1.78149 29.7713 4.0011 30.1837 6.22072 30.1837C7.26887 30.1837 8.37867 30.1013 9.42682 29.9775C14.1743 29.4414 18.8602 29.4414 23.4844 29.4414C29.465 29.4414 35.384 29.4002 41.3646 29.4002C52.9559 29.4002 64.4239 29.5239 75.892 30.225C92.5391 31.3385 109.186 32.7407 125.155 36.4111C138.781 39.5866 147.105 46.1438 150.619 56.1653C154.627 68.0013 155.551 80.0024 156.23 92.0034C157.154 103.839 157.894 115.552 156.785 127.388C155.12 144.255 150.311 160.339 138.349 175.021C123.799 192.96 103.391 205.827 75.3371 212.467C61.896 215.643 48.2701 216.385 34.6441 216.385C26.8755 216.385 18.9835 216.138 11.1532 215.931C9.42683 215.849 7.76211 215.684 6.15906 215.684C3.93944 215.684 1.84314 216.014 0.0551186 217.498V244.057C1.59652 245.377 3.4462 245.831 5.48084 245.831ZM5.48105 244.181C4.18627 244.181 3.32309 243.975 2.52156 243.439V218.117C3.4464 217.54 4.49455 217.334 6.15926 217.334C7.02245 217.334 7.94729 217.416 8.93378 217.499C9.55034 217.499 10.2902 217.54 11.0301 217.581L14.7911 217.664C21.4499 217.87 28.0471 218.035 34.6443 218.035C45.989 218.035 60.9098 217.581 76.1388 214.035C103.946 207.436 124.909 194.981 140.508 175.846C151.297 162.484 157.278 147.101 159.251 127.512C160.361 115.552 159.621 103.84 158.696 91.9212C157.956 79.0541 156.97 67.4655 153.024 55.8357C149.324 45.2368 140.261 38.1847 125.957 34.8442C109.125 30.9676 91.4295 29.6066 76.1388 28.5756C64.1775 27.8745 52.4012 27.7508 41.3648 27.7508L32.4247 27.7921H23.4846C18.7987 27.7921 13.9896 27.7921 9.11875 28.3282C8.13226 28.4519 7.14576 28.4931 6.22092 28.4931C4.55621 28.4931 3.50806 28.2457 2.52156 27.6271V20.6574C2.58322 14.7188 2.64488 8.82139 2.45991 2.88275C2.45991 2.05794 2.52156 1.76925 2.45991 1.72801C2.58322 1.72801 3.01481 1.64553 4.12462 1.64553C66.7671 1.68677 129.656 1.68677 192.299 1.68677C199.574 4.44989 207.281 5.89331 215.111 5.89331C219.489 5.89331 223.928 5.43967 228.367 4.57361C230.772 4.16121 233.238 3.83128 235.704 3.50136C239.28 3.00647 242.98 2.55282 246.494 1.68677H304.512C304.882 2.51158 304.328 3.25391 302.478 4.82106C293.168 13.1929 282.316 20.2038 270.232 25.6063C266.347 27.3384 262.401 29.0705 258.517 30.7614C248.097 35.2978 237.369 39.958 227.442 45.3605C213.755 52.7838 204.445 63.2177 198.033 78.188C192.484 91.0139 190.757 104.376 189.031 117.367L188.846 118.521C186.133 138.647 181.447 160.009 165.91 179.681C160.731 186.115 154.442 192.383 147.351 198.404C120.963 220.715 86.0654 234.779 43.5228 240.305C32.9796 241.624 21.3883 242.862 6.83748 244.099C6.40589 244.181 5.91264 244.181 5.48105 244.181Z" fill="#003CA7"/>
</g>
<path fill-rule="evenodd" clip-rule="evenodd" d="M327.452 619H353.328C356.893 617.879 357.754 615.512 358.491 613.062C362.671 599.607 370.845 587.357 380.249 575.522C394.14 558.289 408.4 541.388 421.922 524.071C431.756 511.364 442.328 498.823 457.939 489.148C474.473 478.891 492.851 471.707 514.855 471.707C516.576 471.707 518.297 471.748 520.14 471.873C537.35 472.703 551.917 477.811 562.858 487.611C576.195 499.529 581.358 513.648 584.554 528.307C587.197 540.433 588.058 552.641 589.287 564.933C590.885 581.544 594.511 597.905 597.953 614.308C598.507 616.426 599.859 617.754 601.887 619H659.171C656.774 609.74 652.471 600.978 646.571 592.714C633.11 573.944 624.198 554.178 618.544 533.456C614.18 517.759 610.062 501.938 602.379 486.781C598.261 478.475 593.651 470.253 585.046 463.817C569.926 452.563 551.548 448.369 531.819 448.369C526.656 448.369 521.37 448.66 516.022 449.199C476.01 453.144 445.155 468.966 420.324 491.432C407.724 502.851 397.275 515.351 386.764 527.767C371.276 545.914 354.312 563.438 342.265 583.08C335.197 594.5 329.358 606.335 327.452 619ZM330.218 617.339C332.062 607.165 336.487 596.701 344.539 583.703C353.759 568.712 366.051 554.676 377.975 541.138C381.663 536.986 385.289 532.792 388.916 528.598L390.207 527.103C400.041 515.434 410.305 503.267 422.291 492.387C449.212 468.052 480.005 454.432 516.391 450.86C521.739 450.321 526.963 450.071 531.819 450.071C552.962 450.071 569.742 454.93 583.264 464.896C591.684 471.208 596.171 479.472 600.043 487.362C607.112 501.273 611.23 516.057 615.225 530.425L616.147 533.747C622.17 555.88 631.39 575.398 644.358 593.462C649.89 601.144 653.885 609.2 656.282 617.339H602.871C601.457 616.342 600.719 615.387 600.412 614.059L599.859 611.359C596.601 596.161 593.221 580.422 591.746 564.808L591.192 559.452C590.209 549.153 589.226 538.522 587.013 528.099C584.063 514.769 579.207 499.446 564.825 486.615C553.7 476.565 538.764 471.042 520.325 470.17C518.42 470.087 516.637 470.046 514.855 470.046C494.818 470.046 475.641 475.942 456.28 487.943C440.054 497.993 429.297 510.907 419.771 523.282C411.411 533.954 402.684 544.668 394.14 555.008C388.793 561.569 383.384 568.131 378.098 574.733C366.543 589.267 359.721 600.978 356.094 612.771C355.357 615.18 354.619 616.55 352.714 617.339H330.218Z" fill="#003CA7"/>
<path fill-rule="evenodd" clip-rule="evenodd" d="M97.6706 619H172.792C170.28 612.815 167.891 606.63 164.03 600.816C150.673 580.735 130.391 565.108 104.901 553.027C88.6634 545.399 71.0778 541.44 52.4505 541.44C47.2422 541.44 41.9726 541.729 36.5805 542.347C24.387 543.791 12.1322 545.151 0 546.512V603.702C2.69605 605.475 5.69847 605.888 8.76217 605.888C11.5808 605.888 14.4606 605.517 17.218 605.393C26.3478 605.063 35.4776 604.527 44.6074 604.527C48.2226 604.527 51.899 604.61 55.5755 604.816C68.9332 605.64 81.0041 608.733 90.7467 615.619C92.83 617.103 95.1584 618.134 97.6706 619ZM98.2832 617.351C96.3837 616.608 94.3004 615.784 92.5235 614.506C83.026 607.784 70.9551 604.115 55.6979 603.166C52.2665 602.96 48.5901 602.878 44.6073 602.878C37.4995 602.878 30.1466 603.208 23.1614 603.537L17.0953 603.785C15.8698 603.785 14.7056 603.909 13.4188 604.032C11.887 604.115 10.2939 604.28 8.76203 604.28C6.06597 604.28 4.16648 603.867 2.45081 602.96V547.914L9.43604 547.172L37.0093 543.997C42.2176 543.378 47.3646 543.048 52.4503 543.048C70.3423 543.048 87.5603 546.883 103.492 554.429C129.594 566.716 149.263 582.591 161.824 601.476C165.194 606.506 167.339 611.784 169.545 617.351H98.2832Z" fill="#003CA7"/>
<path fill-rule="evenodd" clip-rule="evenodd" d="M1537 110.061V52.2748C1535.27 50.3417 1534.65 47.9563 1531.99 46.4756C1523.02 41.3345 1514.24 36.2757 1504.04 32.3273C1485.86 25.1297 1466.07 21.387 1446.59 16.5749C1435.58 13.8604 1424.63 11.0225 1415.6 5.47014C1412.14 3.29031 1408.8 1.23387 1404.53 0H1351.41C1351.84 16.7806 1366.13 30.8467 1389.07 36.3579C1405.89 40.3063 1422.9 43.6789 1439.72 47.6272C1458.89 52.2748 1476.33 59.1433 1490.86 69.0965C1501.07 76.1295 1509.17 84.3142 1517.7 92.2932C1524.07 98.2569 1529.33 104.796 1537 110.061ZM1534.53 105.701C1531.25 102.987 1528.4 100.067 1525.56 97.2287C1523.64 95.2545 1521.72 93.2803 1519.75 91.3472L1515.54 87.4811C1508.55 80.8183 1501.32 73.9497 1492.6 67.9449C1478.74 58.403 1461.18 51.0409 1440.52 46.0643C1431.87 44.049 1423.15 42.1571 1414.36 40.2652C1406.26 38.4966 1398.04 36.7281 1389.94 34.795C1368.85 29.7773 1355.3 17.1096 1353.94 1.64516H1403.97C1407.56 2.79676 1410.59 4.60643 1413.93 6.66288C1422.9 12.2564 1433.66 15.1354 1445.72 18.0967C1450.3 19.2072 1454.81 20.2765 1459.32 21.3459C1473.86 24.7596 1489.01 28.2967 1502.74 33.7668C1513.07 37.7563 1522.28 43.0619 1530.44 47.7095C1531.62 48.4498 1532.36 49.5192 1533.17 50.7942C1533.54 51.4111 1534.03 52.0692 1534.53 52.6861V105.701Z" fill="#003CA7"/>
<path fill-rule="evenodd" clip-rule="evenodd" d="M223.812 619C226.024 616.816 224.795 614.672 223.934 612.488C217.482 596.456 204.884 582.855 190.873 569.749C178.889 558.539 165.616 547.864 154.738 535.912C149.331 530.06 144.783 524.001 142.755 516.995C140.973 510.565 142.694 505.166 150.314 500.921C154.616 498.49 159.409 497.13 164.448 496.14C181.225 492.761 198.432 492.39 215.515 491.442C229.588 490.7 243.661 489.999 257.365 488.021C288.46 483.611 312.181 472.277 325.393 450.846C340.081 427.107 350.097 402.296 358.332 377.073C364.293 358.526 363.924 340.145 356.304 321.887C352.494 312.325 348.745 302.722 347.455 292.831C345.12 274.284 348.868 256.892 366.751 242.385C377.26 233.894 390.41 228.99 403.93 228.99C413.517 228.99 423.349 231.463 432.567 236.903C440.495 241.684 447.746 246.877 454.567 252.4C466.305 261.673 478.657 270.451 492.668 277.87C507.724 285.701 524.316 291.636 540.786 297.735C555.596 303.176 570.652 308.286 583.864 315.87C599.289 324.648 607.032 335.982 606.233 350.077C605.496 363.925 600.026 376.99 592.529 389.684C583.926 404.15 569.607 414.124 547.853 418.41C533.227 421.213 518.54 424.098 504.283 427.807C458.07 439.883 418.679 459.212 387.399 486.331C352.555 516.5 325.885 550.337 302.287 585.493C296.449 594.065 291.901 602.968 288.399 612.2C287.538 614.508 286.063 616.816 289.013 619H326.131C328.589 617.557 329.388 615.456 330.064 613.354C335.041 596.373 344.444 580.671 356.55 565.751C370.868 548.318 386.109 531.214 401.165 514.11C413.578 499.891 426.914 486.167 445.595 475.492C469.623 461.727 495.864 451.876 527.266 451.876C528.557 451.876 529.847 451.876 531.138 451.959C565.244 452.866 584.663 463.251 595.54 482.952C603.529 497.418 608.138 512.461 612.378 527.546C617.786 546.958 624.055 566.122 636.284 583.968C643.166 594.271 650.234 604.451 654.228 615.579C654.658 617.228 656.502 617.887 657.854 619H783.832C779.1 615.95 774.368 612.9 769.698 609.809C761.033 604.204 751.139 599.464 744.072 592.499C736.698 585.452 731.72 577.703 732.519 568.76C733.256 559.322 737.312 550.337 742.413 541.641C751.078 526.845 760.541 512.214 769.145 497.377C777.441 483.117 784.139 468.527 783.955 452.701C783.586 430.486 761.156 409.879 731.167 404.315C720.167 402.213 709.228 402.955 698.167 402.461C678.502 401.513 670.267 398.298 666.764 383.543C664.245 373.157 666.518 362.689 664.798 352.22C663.077 342.082 660.803 332.067 654.965 322.711C644.887 306.638 626.451 297.158 604.512 290.688C580.484 283.599 555.35 278.447 532.551 269.215C515.283 262.167 500.104 253.471 487.813 242.096C474.232 229.814 464.523 215.554 450.327 203.561C439.696 194.452 430.048 189.836 416.712 189.836C411.243 189.836 405.159 190.578 398.215 192.186C376.891 196.843 360.421 207.064 346.41 218.892C317.589 243.374 310.645 272.347 315.376 303.382C317.159 314.592 321.952 325.39 325.578 336.312C329.511 348.552 331.907 360.752 329.756 373.322C325.578 397.226 316.114 419.771 298.846 440.378C288.583 452.783 273.588 461.644 254.046 465.848C240.957 468.733 227.56 469.887 214.041 469.887C207.649 469.887 201.135 469.598 194.683 469.145C163.219 466.961 133.353 460.737 105.146 450.516C72.8832 438.935 39.0841 433.124 3.19555 433.124H0V546.545C1.22906 547.699 2.76538 547.988 4.48606 547.988C5.16205 547.988 5.83803 547.947 6.57546 547.864C14.9331 546.958 23.1678 545.721 31.4639 544.814C38.7768 544.073 45.9668 543.578 53.1568 543.578C63.7881 543.578 74.2966 544.691 84.6207 547.741C104.286 553.717 120.694 562.743 135.258 573.829C150.805 585.74 162.604 599.258 168.75 615.126C169.426 616.857 170.839 618.176 173.236 619H223.812ZM173.85 617.351C172.437 616.774 171.577 615.95 171.147 614.714C165.247 599.506 154.124 585.822 137.102 572.758C121.124 560.558 104.286 551.862 85.604 546.216C75.7716 543.331 65.1402 541.929 53.1569 541.929C46.52 541.929 39.5144 542.342 31.0953 543.166C26.6707 543.66 22.2461 544.237 17.8829 544.773C13.9499 545.309 10.1399 545.845 6.14542 546.216C5.53089 546.298 5.03926 546.381 4.48619 546.381C3.56439 546.381 2.94986 546.216 2.45824 545.927V434.731H3.19567C38.7769 434.731 71.7771 440.378 103.978 451.959C132.37 462.262 162.85 468.609 194.437 470.794C201.197 471.288 207.772 471.536 214.041 471.536C228.851 471.536 242.186 470.175 254.845 467.414C274.51 463.169 290.058 454.308 300.997 441.202C317.527 421.46 327.729 399.328 332.215 373.487C334.058 362.442 332.829 350.86 327.974 335.982C326.93 332.932 325.824 329.841 324.717 326.791C321.952 319.125 319.064 311.171 317.896 303.217C312.673 269.009 322.628 241.766 348.377 219.882C364.785 205.992 380.885 197.708 399.014 193.752C405.774 192.227 411.55 191.485 416.712 191.485C428.388 191.485 437.545 195.277 448.422 204.591C455.981 210.979 462.372 218.151 468.64 225.116C473.987 231.133 479.517 237.356 485.847 243.085C497.523 253.925 512.456 262.909 531.261 270.616C546.931 276.963 563.831 281.497 580.239 285.783C587.92 287.844 595.848 289.946 603.529 292.171C628.295 299.507 643.904 309.399 652.692 323.329C658.591 332.932 660.804 343.401 662.34 352.426C663.139 357.084 663.139 361.906 663.077 366.522C663.016 372.209 662.954 377.979 664.368 383.791C668.178 399.864 678.256 403.12 697.982 404.068C701.424 404.233 704.804 404.274 708.184 404.315C715.927 404.398 723.178 404.48 730.491 405.881C759.251 411.198 781.19 431.352 781.374 452.742C781.681 468.939 774.184 484.106 766.871 496.759C762.201 504.837 757.285 512.832 752.368 520.787C748.19 527.504 744.072 534.222 740.139 540.981C733.932 551.574 730.737 560.393 730.061 568.636C729.324 576.961 733.072 584.875 742.044 593.488C747.145 598.475 753.659 602.349 759.927 606.059C762.692 607.707 765.396 609.315 768.039 611.046C771.173 613.106 774.43 615.208 777.748 617.351H658.898C658.714 617.228 658.53 617.063 658.345 616.939C657.362 616.28 656.809 615.909 656.625 615.208C652.753 604.41 645.993 594.395 639.479 584.71L638.496 583.308C625.898 564.927 619.691 544.691 614.837 527.257C610.719 512.667 605.987 497.13 597.814 482.416C586.323 461.438 565.183 451.258 531.261 450.269H527.266C499.059 450.269 472.573 457.852 443.936 474.173C425.992 484.477 413.025 497.294 399.075 513.327L393.483 519.591C380.455 534.346 366.936 549.595 354.399 564.968C341.064 581.371 332.338 597.115 327.667 612.983C327.114 614.714 326.561 616.28 325.148 617.351H290.181C289.382 616.362 289.751 615.208 290.427 613.477L290.795 612.612C294.298 603.297 298.907 594.354 304.499 586.152C332.891 544.073 359.008 513.574 389.366 487.403C419.785 460.985 458.746 441.449 505.143 429.332C519.892 425.499 535.747 422.408 548.468 419.977C570.345 415.649 585.462 406.005 594.803 390.22C603.652 375.424 608.015 362.606 608.691 350.118C609.49 335.817 601.686 323.865 585.462 314.592C573.602 307.792 560.205 302.928 547.177 298.23L542.015 296.293L538.574 295.015C523.579 289.492 508.031 283.764 494.205 276.551C482.16 270.204 470.177 262.209 456.472 251.369C449.098 245.434 441.847 240.283 434.165 235.667C424.947 230.226 414.5 227.341 403.93 227.341C389.919 227.341 376.092 232.287 364.846 241.354C348.561 254.584 342.232 270.987 344.997 292.954C346.287 302.722 349.852 312.078 353.969 322.299C361.343 340.145 361.958 357.949 355.936 376.702C346.226 406.293 335.84 429.662 323.058 450.187C310.89 470.011 289.259 481.839 256.812 486.414C244.398 488.186 231.37 488.928 218.834 489.629L215.393 489.793L207.588 490.206C193.147 490.947 178.214 491.648 163.772 494.533C159.409 495.44 153.878 496.8 148.778 499.644C140.973 503.971 138.269 509.782 140.359 517.325C142.632 525.238 148.163 531.914 152.649 536.819C160.024 544.897 168.566 552.521 176.862 559.816C180.918 563.443 184.912 567.07 188.906 570.697C201.934 582.938 214.962 596.497 221.538 612.9L221.845 613.601C222.521 615.249 222.951 616.362 222.398 617.351H173.85Z" fill="black"/>
<path fill-rule="evenodd" clip-rule="evenodd" d="M890.628 619H945.709C949.951 617.474 950.996 614.341 952.656 611.496C957.881 602.672 965.627 595.044 975.156 588.241C977.922 586.262 981.119 584.242 985.115 584.242C986.037 584.242 986.959 584.365 988.004 584.613C993.291 585.85 993.783 589.519 994.766 592.735C996.856 599.539 995.442 606.342 995.873 613.186C996.057 615.33 995.75 617.557 998.578 619H1060.42C1063.43 610.712 1069.03 603.291 1075.91 596.364C1088.45 583.582 1105.3 573.892 1123.8 565.852C1142.31 557.729 1162.1 551.792 1183.99 550.308C1191.18 549.813 1198.25 549.689 1205.44 549.689C1212.08 549.689 1218.66 549.813 1225.24 549.813C1227.45 549.813 1229.6 549.813 1231.75 549.73C1241.22 549.648 1250.5 549.03 1259.48 547.092C1273.98 543.917 1283.64 537.114 1286.65 526.146C1288.8 518.724 1288.8 511.426 1287.94 503.839C1286.16 487.429 1276.07 474.689 1257.94 465.082C1247.24 459.392 1235.93 454.32 1224.99 448.96C1197.02 435.312 1179.62 416.717 1172.61 392.967C1168.37 378.289 1168.68 363.445 1167.51 348.602C1166.16 332.975 1161.98 318.008 1151.04 304.36C1137.88 287.867 1120.42 275.456 1092.7 272.282C1090.05 271.993 1087.41 271.828 1084.83 271.828C1063.99 271.828 1044.93 281.146 1037.92 295.454C1032.82 306.38 1031.41 317.719 1030.18 329.058C1028.82 341.551 1027.9 354.209 1024.77 366.62C1018.8 391.277 1013.09 415.933 1009.64 440.879C1006.94 460.175 995.258 476.956 975.832 490.48C967.164 496.541 958.25 502.561 949.705 508.746C942.021 514.312 936.058 520.745 932 528.084C926.406 537.815 923.148 548.04 919.951 558.183C913.066 579.211 901.079 598.961 890.628 619ZM894.132 617.351L900.218 605.888C908.455 590.674 917 574.882 922.349 558.389C925.484 548.494 928.804 538.268 934.336 528.661C938.148 521.652 943.988 515.343 951.488 509.901C956.836 505.984 962.307 502.19 967.84 498.397C971.098 496.17 974.356 493.903 977.553 491.635C997.717 477.575 1009.34 460.587 1012.1 441.043C1015.67 415.315 1021.75 389.256 1027.22 366.867C1029.81 356.601 1030.85 346.004 1031.96 335.779L1032.63 329.182C1033.74 318.791 1035.09 306.958 1040.38 295.99C1046.84 282.507 1064.72 273.477 1084.83 273.477C1087.29 273.477 1089.81 273.601 1092.2 273.89C1116.12 276.611 1134.07 286.548 1148.88 305.143C1158.41 317.142 1163.51 330.996 1165.05 348.725C1165.36 352.519 1165.6 356.395 1165.85 360.229C1166.34 371.032 1166.96 382.329 1170.22 393.256C1177.28 417.294 1195.24 436.467 1223.58 450.279L1235.13 455.846C1242.2 459.227 1249.46 462.69 1256.34 466.36C1274.23 475.802 1283.76 488.089 1285.42 503.922C1286.46 512.663 1286.1 519.384 1284.19 525.816C1281.42 535.794 1272.94 542.432 1258.74 545.484C1251.18 547.174 1242.57 547.958 1231.75 548.122H1225.24H1215.34C1212.08 548.04 1208.7 548.04 1205.44 548.04C1199.48 548.04 1191.73 548.122 1183.8 548.7C1163.51 550.06 1143.47 555.214 1122.45 564.491C1100.63 574.016 1085.13 583.87 1073.82 595.498C1066.38 602.961 1061.34 610.135 1058.45 617.351H999.5C998.577 616.567 998.455 615.536 998.332 613.928V613.104C998.209 610.795 998.209 608.486 998.332 606.177C998.455 601.683 998.577 597.065 997.164 592.405L996.918 591.457C995.996 588.323 994.827 584.489 988.803 583.005C987.512 582.757 986.344 582.592 985.114 582.592C980.135 582.592 976.447 584.942 973.373 587.128C962.922 594.508 955.484 602.342 950.381 610.96L949.582 612.279C948.476 614.423 947.43 616.32 945.033 617.351H894.132Z" fill="#003CA7"/>
<path fill-rule="evenodd" clip-rule="evenodd" d="M922.585 199.439C932.872 199.439 942.669 197.461 951.792 192.845C960.854 188.27 968.08 182.376 974.509 175.864C989.694 160.202 999.307 142.604 1009.41 125.129C1018.04 110.291 1026.62 95.4126 1037.88 81.4819C1044.43 73.4038 1046.76 64.8723 1044.37 55.6402C1040.82 41.5034 1039.66 27.1194 1039.78 12.8591C1039.9 8.61392 1041.19 4.36878 1040.88 0H966.916C962.263 1.97832 960.365 5.48159 957.609 8.36663C950.445 16.0738 943.22 23.8635 938.689 32.601C925.83 57.6597 923.258 83.5839 926.504 110.085C927.606 118.988 929.259 127.931 927.116 136.875C924.605 147.879 912.788 154.927 898.092 154.927C896.623 154.927 895.215 154.845 893.684 154.721C873.845 152.866 855.965 147.343 838.882 140.378C828.105 135.927 818.553 130.404 810.042 123.892C795.836 112.723 786.101 99.6165 779.916 85.2325C768.65 59.2671 758.669 33.0544 751.076 6.30589C750.342 3.83299 750.035 1.23645 746.178 0H666.639C669.149 8.16056 673.19 15.9502 680.232 22.7919C686.661 28.9741 693.825 34.7854 701.112 40.5143C713.297 50.0762 724.196 60.1326 733.197 71.4667C744.035 84.8616 751.995 99.2868 761.914 113.176C772.385 127.808 786.958 139.925 804.041 150.393C827.003 164.448 852.169 176.73 877.335 188.6C886.765 193.133 896.745 196.554 908.012 198.244C912.91 198.986 917.809 199.439 922.585 199.439ZM922.585 197.791C918.176 197.791 913.461 197.378 908.563 196.637C898.521 195.112 888.724 192.02 878.682 187.24C854.434 175.823 828.778 163.294 805.694 149.157C787.325 137.905 773.793 125.912 764.118 112.476C760.2 106.994 756.526 101.306 752.974 95.8248C747.586 87.4581 742.014 78.803 735.34 70.6836C727.074 60.215 716.419 49.9937 702.948 39.4015C696.519 34.3321 688.988 28.3147 682.252 21.8439C676.558 16.3623 672.455 9.72673 669.7 1.6486H745.565C747.525 2.43168 747.892 3.75056 748.504 5.97617L748.688 6.63561C755.607 30.9936 765.098 56.8354 777.528 85.6447C784.202 101.059 794.55 114.33 808.205 124.964C816.838 131.599 826.758 137.287 837.596 141.821C857.863 150.105 875.62 154.721 893.377 156.37C894.969 156.493 896.5 156.576 898.092 156.576C914.196 156.576 926.871 148.786 929.504 137.163C931.463 129.333 930.483 121.46 929.442 113.918L928.953 109.961C925.401 81.0698 929.259 55.9287 941.015 33.178C945.424 24.6878 952.527 16.9393 959.629 9.27336C960.364 8.53149 961.038 7.74841 961.711 6.96533C963.426 4.86336 965.018 2.92626 967.651 1.6486H1038.5C1038.5 3.5857 1038.19 5.5228 1037.88 7.37748C1037.64 9.23215 1037.39 11.0044 1037.27 12.8591C1037.15 28.8917 1038.68 42.9872 1041.92 55.9287C1044.19 64.6663 1042.17 72.7856 1035.74 80.6577C1024.72 94.2174 1016.21 108.89 1008 123.027L1007.14 124.552L1004.88 128.508C995.756 144.294 986.326 160.656 972.427 174.916C965.263 182.211 958.282 187.487 950.322 191.526C941.934 195.73 932.933 197.791 922.585 197.791Z" fill="#003CA7"/>
<path fill-rule="evenodd" clip-rule="evenodd" d="M1532.47 619C1536.45 619 1537 618.136 1537 615.377C1536.88 552.828 1536.94 490.155 1536.94 427.523C1535.96 426.7 1534.79 426.412 1533.69 426.412C1532.34 426.412 1531 426.782 1529.59 427.112C1521.44 428.882 1513.48 431.188 1505.21 432.753C1491.3 435.224 1477.58 436.377 1464.04 436.377C1442.12 436.377 1420.68 433.288 1399.67 427.276C1370.57 418.958 1358.32 402.981 1359.36 382.64C1360.22 364.439 1371.86 349.986 1391.82 339.115C1413.88 327.132 1438.93 323.261 1464.96 323.261C1470.72 323.261 1476.48 323.467 1482.36 323.796C1498.35 324.702 1513.91 327.791 1529.59 330.179C1530.87 330.344 1532.1 330.632 1533.32 330.632C1534.61 330.632 1535.84 330.344 1536.94 329.479V247.453C1530.63 249.553 1527.02 253.918 1521.75 256.924C1508.94 264.171 1495.04 270.059 1480.4 275.33C1456.2 283.895 1431.64 292.048 1407.44 300.778C1384.23 309.096 1364.38 320.626 1349.25 335.738C1326.47 358.592 1322.42 384.328 1328.12 411.258C1331.86 429.129 1346.43 440.618 1369.65 446.918C1385.27 451.159 1401.44 453.836 1417.49 456.924C1440.34 461.454 1462.82 466.848 1483.71 475.207C1493.69 479.243 1503.06 484.184 1509.62 490.855C1527.75 509.056 1533.45 529.233 1525.55 551.139C1520.03 566.293 1507.96 577.411 1487.38 583.587C1478.75 586.14 1469.93 588.323 1460.86 589.97C1445.12 592.811 1429.01 594.87 1414.12 599.688C1402.3 603.682 1392.5 609.571 1387.84 618.918H1460.06C1484.14 618.918 1508.21 618.918 1532.22 619H1532.47ZM1532.47 619L1532.22 617.353C1508.21 617.271 1484.14 617.23 1460.06 617.23L1423.98 617.271H1391.4C1395.75 610.394 1403.52 605.082 1415.22 601.212C1426.56 597.547 1438.93 595.447 1450.94 593.388C1454.49 592.77 1457.98 592.235 1461.53 591.576C1470.35 589.97 1479.11 587.829 1488.36 585.07C1508.76 578.934 1522.05 567.693 1527.93 551.51C1535.84 529.48 1530.38 508.726 1511.64 489.908C1505.7 483.855 1497.18 478.749 1484.99 473.848C1466.8 466.519 1446.22 460.836 1418.16 455.36C1414.61 454.701 1411.06 454.001 1407.44 453.342C1395.26 451.077 1382.58 448.648 1370.57 445.395C1347.17 439.012 1334.06 427.77 1330.57 411.011C1324.32 381.281 1331.06 356.986 1351.27 336.726C1365.73 322.232 1385.09 310.661 1408.67 302.26C1422.76 297.154 1437.28 292.172 1451.37 287.272C1461.41 283.813 1471.58 280.354 1481.63 276.771C1498.04 270.883 1511.64 264.789 1523.4 258.159C1525.48 256.965 1527.32 255.565 1529.04 254.247C1530.87 252.847 1532.59 251.57 1534.49 250.5V328.738C1534.12 328.902 1533.75 328.985 1533.32 328.985C1532.59 328.985 1531.73 328.82 1530.87 328.655L1530.2 328.573C1526.34 328.038 1522.67 327.379 1518.87 326.761C1507.11 324.826 1494.92 322.849 1482.54 322.149C1476.36 321.82 1470.6 321.655 1464.96 321.655C1434.83 321.655 1410.39 326.967 1390.29 337.838C1369.04 349.409 1357.77 364.439 1356.85 382.557C1355.75 404.67 1370.26 420.647 1398.69 428.8C1420.12 434.894 1442.05 438.024 1464.04 438.024C1477.83 438.024 1491.92 436.788 1505.76 434.359C1510.84 433.412 1515.87 432.176 1520.64 430.982C1523.83 430.159 1527.08 429.376 1530.38 428.635L1531.12 428.47C1532.04 428.265 1532.96 428.059 1533.69 428.059C1533.88 428.059 1534.12 428.059 1534.49 428.223V478.913C1534.49 524.415 1534.43 569.958 1534.55 615.377C1534.55 616.736 1534.37 617.147 1534.3 617.23C1534.3 617.23 1533.94 617.353 1532.47 617.353V619Z" fill="black"/>
<path fill-rule="evenodd" clip-rule="evenodd" d="M883.407 459.449C886.423 459.449 889.562 459.118 892.886 458.417C913.815 453.711 931.604 445.702 945.085 433.071C957.704 421.223 966.445 407.848 975.739 394.721C994.144 368.591 1003.62 341.016 1003.19 311.624C1003.07 299.818 1003.87 287.847 1006.52 276.041C1010.03 260.437 1020.67 251.52 1042.22 248.218C1051.14 246.897 1060.13 246.236 1069.06 246.236C1079.4 246.236 1089.62 247.103 1099.71 248.92C1135.29 255.483 1158.25 272.821 1175.79 294.741C1192.97 316.289 1198.57 339.943 1201.28 364.174C1202.69 377.136 1206.33 389.644 1215.13 401.244C1223.25 411.894 1235.26 418.829 1251.32 422.008C1254.28 422.585 1257.05 422.833 1259.69 422.833C1269.97 422.833 1277.85 418.54 1282.41 410.738C1288.81 399.881 1290.59 388.158 1293.61 376.764C1299.64 353.028 1312.39 331.48 1333.31 312.574C1350.3 297.3 1371.48 284.957 1391.98 272.202C1407.61 262.336 1421.89 251.685 1435.5 240.333C1448.73 229.353 1461.6 218.248 1475.26 207.557C1494.1 192.944 1515.46 180.147 1537 167.721V110.466C1535.03 108.072 1534.29 105.265 1531.77 102.912C1524.69 96.1416 1517.55 89.4955 1510.65 82.643C1492.43 64.521 1468.3 52.302 1438.7 45.2431C1424.23 41.8168 1409.52 39.0924 1395.12 35.7487C1374.25 30.8776 1359.97 21.7547 1356.03 5.77923C1355.41 3.63266 1354.86 1.44481 1352.27 0H1302.72C1300.14 1.03201 1298.23 2.31169 1297 4.25186C1292.63 10.6916 1285.61 15.1498 1276.19 17.6266C1261.54 21.2593 1246.71 23.1995 1231.81 23.1995C1221.22 23.1995 1210.51 22.1675 1199.86 20.1035C1185.7 17.4202 1173.39 12.4253 1165.27 3.30242C1163.85 1.73377 1161.64 1.03201 1159.6 0H1107.84C1110.73 4.49954 1113.5 9.12293 1116.76 13.5399C1129.01 30.341 1147.91 41.2389 1173.89 45.9449C1193.95 49.6601 1214.51 48.2153 1234.83 48.9583C1250.46 49.6601 1265.97 49.9903 1281.11 52.5084C1302.29 55.976 1316.88 64.5622 1323.28 79.547C1327.65 89.6193 1328.33 99.9807 1327.16 110.259C1326.24 118.763 1323.83 127.06 1317.86 134.615C1301.43 154.801 1275.21 161.901 1244.43 161.901H1244.18C1226.15 161.777 1208.6 158.351 1192.48 152.076C1175.73 145.513 1159.24 138.578 1142.31 132.138C1131.29 128.01 1120.39 125.987 1109.44 125.987C1096.57 125.987 1083.83 128.794 1071.21 134.326C1056.13 140.848 1044.56 149.806 1034.59 160.043C1021.04 173.831 1011.2 189.105 1000.73 204.131C997.592 208.548 994.268 212.923 990.082 217.01C981.895 224.977 971.677 230.88 957.458 232.738C951.548 233.44 945.885 233.811 940.222 233.811C923.11 233.811 906.798 230.509 891.224 224.275C874.85 217.629 860.939 208.548 846.781 199.755C829.299 188.774 811.387 178.248 793.474 167.721C775.931 157.36 759.188 146.462 745.523 133.294C732.658 120.827 723.486 106.751 712.098 93.6648C696.956 76.4509 676.15 64.6861 649.004 58.7417C643.649 57.5859 638.355 57.008 633.061 57.008C616.934 57.008 601.668 62.3331 591.081 71.745C583.079 78.8039 576.061 86.3169 569.229 93.7886C555.994 108.154 542.144 122.107 525.955 134.945C519.307 140.229 512.844 145.595 507.489 151.663C495.732 164.708 491.669 178.908 494.931 194.347C498.502 211.19 507.796 225.968 524.478 238.269C537.774 248.011 554.702 253.915 572.491 258.579C591.573 263.574 611.394 266.546 630.722 271.128C652.205 276.165 668.517 285.989 681.505 298.993C691.354 308.859 698.064 320.045 705.881 330.778C712.345 339.571 720.162 347.703 730.072 354.886C745.646 366.238 764.359 374.783 781.102 385.144C795.136 393.896 808.125 403.308 820.374 413.297C834.47 424.732 846.597 437.364 859.462 449.624C866.417 456.188 874.296 459.449 883.407 459.449ZM883.406 457.839C875.097 457.839 867.956 454.825 861.554 448.633C858.292 445.537 855.03 442.441 851.767 439.304C842.472 430.181 832.808 420.81 822.221 412.224C809.232 401.615 796.306 392.327 782.764 383.947C776.177 379.819 769.16 376.021 762.327 372.265C751.986 366.486 741.214 360.583 731.857 353.73C722.686 347.084 714.93 339.323 708.097 330.035C706.127 327.311 704.219 324.504 702.311 321.738C696.709 313.771 690.985 305.515 683.537 298.084C669.256 283.719 652.205 274.431 631.522 269.518C623.089 267.578 614.348 265.844 605.915 264.193C595.143 262.047 584.063 259.818 573.414 257.052C558.887 253.213 540.421 247.516 526.263 237.113C510.443 225.472 501.025 211.396 497.394 194.1C494.131 178.867 498.132 165.286 509.581 152.489C515.121 146.338 521.585 140.931 527.863 135.977C545.345 122.148 559.626 107.329 571.383 94.6142C577.477 87.8855 584.74 80.0836 593.05 72.777C603.084 63.7779 617.734 58.6179 633.061 58.6179C638.17 58.6179 643.279 59.1958 648.265 60.3104C674.611 66.1309 694.863 77.2765 710.005 94.4904C714.253 99.4027 718.254 104.521 722.193 109.516C728.657 117.814 735.428 126.4 743.553 134.202C758.142 148.278 776.116 159.631 791.812 168.96L796.798 171.849C812.803 181.303 829.299 191.003 845.119 200.952L848.812 203.264C861.554 211.231 874.727 219.528 889.993 225.679C906.12 232.16 923.048 235.462 940.222 235.462C946.07 235.462 951.918 235.091 957.95 234.348C971.369 232.614 982.572 227.247 992.175 217.918C995.745 214.368 999.069 210.323 1002.89 204.832L1007.5 198.269C1016.18 185.678 1025.17 172.634 1036.68 160.952C1047.82 149.476 1059.15 141.467 1072.5 135.688C1084.82 130.363 1097.31 127.638 1109.44 127.638C1119.96 127.638 1130.61 129.661 1141.14 133.583C1151.11 137.339 1161.14 141.426 1170.75 145.306C1177.58 148.031 1184.47 150.797 1191.31 153.48C1207.99 160.043 1225.78 163.428 1244.43 163.552C1279.88 163.552 1304.57 154.347 1320.02 135.358C1325.5 128.547 1328.45 120.621 1329.68 110.383C1330.91 98.5771 1329.62 88.3809 1325.74 79.0929C1319.22 64.1081 1304.44 54.6137 1281.73 50.8985C1268.62 48.7519 1255.2 48.174 1242.15 47.5961L1234.95 47.3071C1228.92 47.1007 1222.7 47.0594 1216.73 47.0594C1202.76 46.9769 1188.35 46.9356 1174.5 44.3349C1149.63 39.8354 1130.92 29.2264 1118.92 12.8381C1116.7 9.74212 1114.67 6.52227 1112.7 3.42625C1112.33 2.80705 1111.96 2.27041 1111.59 1.6512H1158.87C1159.11 1.77504 1159.36 1.89889 1159.67 2.06401C1161.14 2.72449 1162.31 3.26113 1163.18 4.1693C1170.87 12.7969 1182.57 18.5348 1199.12 21.7134C1209.9 23.7774 1220.85 24.8507 1231.81 24.8507C1246.58 24.8507 1261.79 22.9518 1277.05 19.154C1287.15 16.5534 1294.6 11.7236 1299.27 4.87106C1300.14 3.50881 1301.43 2.51809 1303.34 1.6512H1351.29C1352.7 2.76577 1353.13 4.3757 1353.57 6.06819C1357.44 21.6308 1370.8 31.827 1394.32 37.3173C1401.21 38.9272 1408.16 40.4133 1415.31 41.8581C1422.75 43.4268 1430.45 45.0367 1437.9 46.8117C1467.75 53.9119 1490.9 65.9658 1508.62 83.5924C1513.49 88.5048 1518.6 93.2933 1523.7 98.0818L1529.8 103.902C1531.03 105.017 1531.77 106.338 1532.57 107.741C1533.18 108.815 1533.68 109.847 1534.54 110.879V166.937C1515.15 178.165 1492.86 191.375 1473.35 206.484C1463.13 214.451 1453.29 222.789 1443.68 230.839L1433.59 239.301C1419.37 251.149 1405.21 261.51 1390.25 271.005L1381.88 276.206C1364.28 287.063 1346.18 298.291 1331.28 311.583C1310.91 329.953 1297.49 351.831 1291.21 376.475C1290.59 378.828 1289.98 381.181 1289.49 383.493C1287.33 392.41 1285.05 401.656 1280.13 410.16C1277.11 415.196 1271.27 421.223 1259.69 421.223C1257.29 421.223 1254.65 420.934 1252 420.439C1236.61 417.343 1225.22 410.821 1217.34 400.5C1209.71 390.469 1205.4 378.911 1203.8 364.05C1201.28 342.295 1196.35 316.991 1177.95 293.915C1157.14 268.032 1132.52 253.254 1100.33 247.31C1090.17 245.493 1079.64 244.585 1069.06 244.585C1060.01 244.585 1050.84 245.287 1041.73 246.608C1019.75 249.993 1007.75 259.24 1004.05 275.793C1001.72 286.319 1000.61 298.043 1000.73 311.666C1001.1 340.479 992.236 367.435 973.462 393.978L970.015 398.891C962.136 410.201 953.949 421.884 943.054 432.121C930.558 443.886 913.815 451.936 892.086 456.807C889.07 457.508 886.115 457.839 883.406 457.839Z" fill="black"/>
<path fill-rule="evenodd" clip-rule="evenodd" d="M216.609 450.585C220.791 450.585 225.096 450.42 229.401 450.049C246.498 448.606 261.443 443.865 272.698 434.629C292.994 418.138 301.911 398.101 303.879 376.415C305.171 362.438 301.419 348.957 296.499 335.516C290.903 320.221 287.336 304.678 288.197 288.722C288.812 278.168 290.288 267.654 292.686 257.265C297.975 234.548 309.722 213.934 330.633 196.247C342.441 186.27 354.434 176.334 366.427 166.439C381.556 153.864 396.993 141.702 415.689 131.931C434.386 122.242 450.868 111.275 464.214 97.67C474.793 86.9506 486.17 76.7672 498.778 67.0373C517.721 52.4012 540.353 40.981 562.494 29.1072C576.393 21.6861 586.479 12.2036 590.908 0H519.996C519.566 0.74211 519.197 1.56668 518.582 2.26756C506.773 16.7799 490.475 28.53 473.255 39.7441C453.021 52.8548 430.265 62.461 405.173 69.7171C377.743 77.6742 358.308 91.4033 347.177 111.11C340.165 123.479 333.216 135.971 325.651 148.257C316.856 162.44 304.064 174.891 292.133 187.713C282.415 198.061 275.281 209.275 271.776 221.479C265.441 243.948 263.227 266.871 261.259 289.712C259.475 310.12 262.489 330.28 269.685 350.152C275.589 366.685 276.819 383.094 268.516 399.668C259.168 417.932 239.918 428.198 216.301 428.198C209.536 428.198 202.402 427.332 194.96 425.642C173.681 420.488 156.46 410.717 139.793 400.575C119.805 388.577 98.9561 377.569 75.524 369.076C50.4313 360.089 24.5391 352.008 0 342.154V388C2.02955 388.33 4.12061 388.618 6.08866 388.907C37.762 393.071 68.4513 399.42 96.25 411.624C114.947 419.828 132.228 429.476 151.417 437.144C171.836 445.225 193.361 450.585 216.609 450.585ZM216.609 448.977C196.129 448.977 175.218 444.607 152.709 435.784C141.7 431.331 131.06 426.178 120.851 421.189C113.286 417.478 105.537 413.685 97.5416 410.222C73.1255 399.503 45.0192 392.412 6.58071 387.299L2.5216 386.722L2.4601 386.681V345.04C17.282 350.895 32.7189 356.172 47.6638 361.284C56.5815 364.335 65.5608 367.386 74.3555 370.56C94.8355 377.899 114.455 387.547 138.194 401.812C155.23 412.16 172.389 421.931 194.161 427.167C201.725 428.94 209.167 429.806 216.301 429.806C241.271 429.806 261.197 419.004 270.853 400.162C278.541 384.949 278.971 368.953 272.083 349.823C264.826 329.703 261.997 309.501 263.719 289.794C265.81 265.469 268.086 243.577 274.236 221.809C277.434 210.512 284.199 199.298 294.224 188.62C296.315 186.311 298.467 184.002 300.62 181.735C310.46 171.386 320.608 160.667 327.988 148.917C334.2 138.775 340.104 128.344 345.824 118.243L349.452 111.646C360.215 92.6401 379.342 78.9935 406.157 71.2426C432.91 63.4917 455.42 53.5969 474.977 40.8985C491.46 30.1792 508.434 18.1405 520.673 3.09212C521.103 2.67984 521.411 2.14387 521.718 1.64913H587.71C583.281 11.9562 574.487 20.5317 560.956 27.8291L552.961 32.1169C533.711 42.3827 513.785 52.9372 496.933 65.9654C484.633 75.3654 473.317 85.4664 462.185 96.763C450.007 109.131 434.324 120.181 414.213 130.653C394.656 140.795 378.912 153.411 364.459 165.408C352.527 175.262 340.534 185.198 328.726 195.258C308.554 212.244 296.007 232.445 290.288 257.018C287.828 267.448 286.352 278.044 285.737 288.64C284.937 303.152 287.643 318.159 294.101 335.929C298.713 348.462 302.773 362.026 301.419 376.332C299.267 399.874 289.304 418.633 270.792 433.599C260.644 441.968 246.56 446.957 229.094 448.4C224.973 448.771 220.729 448.977 216.609 448.977Z" fill="black"/>
<path fill-rule="evenodd" clip-rule="evenodd" d="M0 282.169C1.60381 281.717 3.39267 281.387 4.74974 280.811C32.0145 269.327 60.6363 259.9 89.0114 249.98C109.984 242.653 129.6 233.721 146.934 222.36C164.144 210.999 181.354 199.721 194.801 185.808C208.804 171.483 213.8 155.101 217.871 138.389C221.634 122.953 223.916 107.311 232.059 92.5746C237.857 81.79 245.63 71.8287 258.213 64.049C271.784 55.5283 287.514 49.6421 302.75 42.9326C325.758 32.8066 342.783 19.7169 347.718 0H305.957C304.97 1.3172 304.292 2.71673 303.058 3.86928C291.77 14.7362 276.966 22.5571 260.866 29.3077C247.542 34.947 234.033 40.3805 222.559 47.7897C206.089 58.5332 198.564 72.7754 194.246 87.9644C189.62 104.347 188.694 121.183 185.178 137.606C177.653 173.212 152.053 200.709 110.91 220.837C77.6614 236.932 39.0466 241.048 0 243.559V282.169ZM2.46723 279.741V245.041C37.9361 242.695 78.3397 238.661 112.328 222.154C154.891 201.408 180.182 173.047 187.646 137.853C189.003 131.103 190.051 124.187 191.1 117.478C192.519 107.846 193.999 97.8434 196.652 88.2937C201.71 70.4703 210.469 57.9981 224.286 48.9423C234.588 42.3563 246.74 37.211 258.583 32.2303L262.161 30.7484C281.777 22.4748 295.039 14.5304 305.094 4.81601C306.081 3.86928 306.759 2.88137 307.314 1.89347C307.376 1.81115 307.438 1.72882 307.499 1.6465H344.757C339.884 17.988 326.067 30.7484 301.454 41.5742C298.123 43.0149 294.792 44.4144 291.523 45.8139C279.618 50.8769 267.342 56.0634 256.486 62.8552C245.259 69.8529 236.747 79.0733 229.776 91.9983C223.114 103.977 220.277 116.655 217.501 128.962C216.884 132.05 216.206 135.096 215.465 138.1C211.579 153.989 206.644 170.701 192.765 184.943C179.75 198.362 162.786 209.559 146.378 220.384L145.206 221.208C129.106 231.704 110.354 240.678 87.9009 248.54C82.3493 250.433 76.7976 252.327 71.246 254.261C48.731 262.082 25.4757 270.109 3.45419 279.453C3.14576 279.576 2.83734 279.659 2.46723 279.741Z" fill="black"/>
<path fill-rule="evenodd" clip-rule="evenodd" d="M216.555 430.641C231.049 430.641 244.253 426.763 255.493 418.346C270.601 407.166 275.699 392.849 276.866 377.873C277.664 367.559 274.777 357.492 271.277 347.549C264.03 327.663 261.941 307.365 263.784 286.943C265.196 271.141 267.469 255.505 269.987 239.662C273.181 220.147 280.919 201.994 296.949 185.698C308.372 174.105 319.304 162.264 327.718 149.268C334.781 138.459 340.677 127.278 346.635 116.139C357.321 96.0876 375.009 80.6575 403.384 72.3236C410.324 70.302 417.079 67.9916 423.897 65.7224C453.254 55.7382 477.329 40.8032 499.193 23.7228C506.195 18.3594 512.582 12.5421 517.802 6.18855C519.276 4.4145 522.163 2.47542 519.276 0H454.052C450.429 1.11394 447.419 2.88799 444.287 4.62079C439.312 7.63255 433.662 9.81917 427.152 11.0569C425.064 11.5107 422.975 11.717 421.01 11.717C414.131 11.717 408.113 9.1178 404.673 4.20822C403.322 2.26914 401.541 0.990169 399.023 0H346.143C343.81 1.23771 342.643 2.97051 341.783 4.9921C337.545 15.6364 329.192 24.5067 317.646 32.0154C307.205 38.8641 294.738 43.4849 282.7 48.6833C270.97 53.7579 259.423 59.0388 250.088 66.1763C235.901 76.9031 228.101 90.0641 223.003 104.174C217.599 119.357 215.388 135.075 210.966 150.382C206.605 165.399 198.867 179.303 185.171 191.433C172.458 202.778 157.963 212.721 142.916 222.417C124.983 233.927 104.592 242.963 82.8509 250.348C57.363 259.053 31.998 267.923 7.49281 277.99C4.48341 279.228 1.90391 280.672 0 282.817V342.351C1.53541 344.496 3.68499 345.94 6.57157 347.095C17.3809 351.427 28.4358 355.553 39.6751 359.06C78.2446 371.189 113.682 386.578 145.25 406.712C160.666 416.531 177.985 424.7 198.252 428.784C204.578 429.981 210.659 430.641 216.555 430.641ZM216.555 429.032C210.966 429.032 205.07 428.372 198.989 427.175C181.24 423.627 164.166 416.531 146.908 405.515C116.691 386.248 81.991 370.529 40.7192 357.575C30.6468 354.398 19.899 350.561 7.86133 345.693C5.40467 344.702 3.68501 343.547 2.45668 341.979V283.312C3.86926 281.827 5.83458 280.589 8.72116 279.393C33.9633 269.037 60.8638 259.713 83.9564 251.833C107.847 243.705 127.685 234.464 144.574 223.613C158.148 214.908 173.747 204.387 187.136 192.464C199.911 181.077 208.509 167.462 213.361 150.712C215.265 144.4 216.677 137.922 218.09 131.692C220.178 122.698 222.266 113.457 225.46 104.587C231.233 88.3725 239.709 76.5318 251.93 67.2489C261.204 60.194 272.874 54.9131 284.051 50.0448C286.324 49.0959 288.658 48.1469 290.93 47.1568C300.634 43.0723 310.706 38.8641 319.366 33.1707C331.833 25.0843 339.94 16.0077 344.117 5.40467C344.915 3.63062 345.775 2.47543 347.065 1.65029H398.286C400.129 2.43417 401.48 3.4656 402.462 4.90959C406.27 10.3143 412.965 13.3673 421.01 13.3673C423.221 13.3673 425.494 13.1197 427.766 12.6247C434.583 11.3457 440.479 9.11781 445.822 5.89976L446.744 5.36342C449.323 3.91942 451.78 2.55794 454.605 1.65029H517.864C518.294 2.39291 517.741 3.09428 516.574 4.37325C516.267 4.74456 515.96 5.07462 515.653 5.36342C510.924 11.1807 504.905 16.8329 497.289 22.6089C472.17 42.2885 448.463 55.4907 422.791 64.2372L418.738 65.5987C413.395 67.3727 407.928 69.188 402.401 70.7971C375.071 78.8422 356.093 93.4472 344.301 115.561L342.95 118.243C337.545 128.309 331.956 138.706 325.385 148.608C316.848 161.893 305.67 173.857 294.861 184.79C279.998 199.89 271.092 217.796 267.53 239.497C265.319 253.566 262.801 270.151 261.327 286.86C259.423 308.314 261.941 328.86 268.881 347.962C272.198 357.327 275.207 367.435 274.409 377.791C273.058 395.242 266.425 407.743 253.65 417.274C243.271 425.03 230.742 429.032 216.555 429.032Z" fill="black"/>
<path fill-rule="evenodd" clip-rule="evenodd" d="M885.807 404.787H886.917C905.899 404.582 921.677 398.586 934.311 389.304C963.093 368.152 976.097 342.975 966.359 313.445C962.23 301.041 953.602 290.445 937.454 283.586C930.798 280.752 924.204 278.083 917.301 275.577C895.422 267.609 875.515 257.67 858.135 245.226C848.582 238.326 838.906 231.385 829.538 224.238C808.275 208.015 784.362 193.845 758.908 180.826C733.763 167.847 710.651 153.39 692.901 134.949C686.861 128.83 680.945 122.628 672.378 118.11C664.304 113.798 655.738 110.799 646.246 110.799C642.487 110.799 638.543 111.292 634.537 112.319C623.381 115.194 614.383 120.369 606.987 127.064C587.82 144.437 572.535 163.617 559.038 183.495C553.306 191.833 549.547 200.745 552.444 210.274C556.881 225.224 571.488 233.233 590.224 238.572C606.371 243.172 623.196 245.883 639.59 249.99C659.312 254.877 676.754 262.188 691.854 272.784C706.214 283.011 716.383 295.086 724.95 307.982C738.139 328.272 756.073 345.891 780.603 360.143C799.77 371.314 818.568 382.773 839.399 392.343C853.574 398.791 868.242 404.787 885.807 404.787ZM885.807 403.145C869.105 403.145 854.93 397.395 840.816 391.029C822.82 382.691 805.872 372.834 789.601 363.223L782.205 358.911C758.97 345.48 740.974 328.559 727.168 307.284C717.122 292.088 706.46 280.752 693.641 271.675C678.788 261.202 661.346 253.604 640.453 248.47C633.366 246.663 626.216 245.143 619.252 243.665C609.884 241.693 600.331 239.681 591.21 237.052C569.824 231.015 558.607 222.595 554.847 209.945C552.505 202.101 554.477 194.174 561.257 184.194C576.788 161.317 591.888 143.492 608.96 128.049C616.479 121.231 625.353 116.426 635.461 113.839C639.036 112.935 642.733 112.442 646.246 112.442C654.074 112.442 661.901 114.66 670.837 119.383C678.788 123.531 684.519 129.446 690.128 135.114L690.868 135.812C706.46 152.076 727.661 166.779 757.491 182.099C785.41 196.474 808.398 210.561 827.689 225.347C836.81 232.288 846.055 238.942 856.286 246.376C873.111 258.368 893.203 268.677 916.13 277.056C922.355 279.274 928.641 281.82 936.098 284.983C950.458 291.02 959.457 300.466 963.956 313.773C972.954 341.209 962.353 366.263 932.462 388.236C919.211 397.929 903.865 402.939 886.793 403.145H885.807Z" fill="black"/>
<path fill-rule="evenodd" clip-rule="evenodd" d="M1254.49 332.399C1257.31 332.399 1260.25 331.739 1263.62 330.625C1274.22 326.996 1280.9 320.315 1288.07 314.294C1302.72 301.797 1317.55 289.425 1333.54 277.753C1357.87 260.226 1383.36 243.399 1404.56 223.645C1426.5 203.23 1450.52 184.135 1471.47 163.226C1482.2 152.585 1490.1 140.832 1487.4 127.057C1482.99 103.797 1462.34 83.0109 1427.11 77.2371C1422.7 76.4947 1418.22 76.0823 1413.81 76.0823C1396.22 76.0823 1379.8 82.2685 1373.12 97.3217C1368.65 107.261 1365.65 117.283 1361.97 127.263C1354.07 148.42 1338.01 165.164 1309.52 174.278C1287.52 181.248 1264.54 183.97 1241.2 183.97C1231.09 183.97 1220.91 183.517 1210.68 182.568C1192.36 180.96 1175.39 175.887 1158.47 170.814C1146.4 167.144 1134.09 164.009 1120.73 163.721C1098.97 163.721 1076.55 176.093 1070.85 191.311C1067.66 199.683 1072.01 207.602 1082.12 212.551C1089.72 216.221 1097.81 218.943 1106.33 220.923C1138.93 228.676 1163.99 243.564 1183.78 263.36C1197.14 276.929 1209.45 290.992 1221.16 305.344C1227.72 313.345 1233.66 321.552 1242.91 328.192C1246.83 331.079 1250.45 332.399 1254.49 332.399ZM1254.49 330.708C1251.12 330.708 1248.12 329.635 1244.69 327.078C1236.91 321.428 1231.51 314.747 1225.88 307.695L1223.3 304.519C1209.95 288.229 1198.06 274.825 1185.8 262.453C1164.42 240.966 1138.62 226.861 1107.12 219.355C1098.42 217.335 1090.52 214.613 1083.59 211.231C1074.22 206.612 1070.3 199.312 1073.18 191.724C1078.63 177.165 1099.95 165.37 1120.67 165.37C1133.84 165.659 1146.16 168.876 1157.43 172.299C1174.16 177.33 1191.56 182.568 1210.31 184.218C1221.1 185.166 1231.45 185.62 1241.2 185.62C1266.81 185.62 1289.54 182.403 1310.62 175.763C1337.89 167.061 1355.48 151.307 1364.36 127.675C1365.59 124.294 1366.81 120.912 1367.98 117.53C1370.24 111.055 1372.57 104.333 1375.45 97.8166C1383.23 80.3714 1402.78 77.732 1413.81 77.732C1417.98 77.732 1422.27 78.1031 1426.56 78.8455C1457.87 84.0007 1480.36 102.559 1485.01 127.263C1487.16 138.646 1482.38 149.41 1469.45 162.318C1457.26 174.485 1443.71 186.238 1430.66 197.621C1421.35 205.787 1411.67 214.2 1402.6 222.696C1385.75 238.368 1365.77 252.431 1346.65 266.082C1341.63 269.588 1336.73 273.093 1331.76 276.599C1315.28 288.641 1300.2 301.302 1286.17 313.221L1283.11 315.819C1277.23 320.933 1271.1 326.212 1262.52 329.182C1259.39 330.213 1256.76 330.708 1254.49 330.708Z" fill="black"/>
<path fill-rule="evenodd" clip-rule="evenodd" d="M222.331 619H287.628C291.874 605.242 299.136 592.351 307.691 579.749C318.584 563.842 330.646 548.306 343.632 533.226C364.618 508.683 386.65 484.678 417.667 465.754C433.73 456.004 450.9 447.451 469.424 440.179C494.103 430.428 520.997 425.016 547.953 419.686C570.231 415.389 585.124 405.059 593.925 390.144C601.187 377.872 606.849 365.271 607.833 351.719C608.634 340.646 606.172 330.358 595.956 321.64C588.694 315.566 580.078 310.484 570.539 306.517C555.399 300.237 539.706 294.742 524.259 288.999C504.134 281.562 485.549 272.596 469.732 260.903C459.208 253.135 448.869 245.079 437.976 237.518C428.806 231.072 418.221 226.527 404.743 226.073C403.943 226.031 403.143 226.031 402.466 226.031C379.511 226.031 360.063 239.335 350.894 253.797C341.539 268.34 340.677 283.71 344.801 299.163C347.632 309.823 351.817 320.317 355.448 330.895C358.463 339.943 359.509 349.24 358.156 358.453C356.248 371.22 352.494 383.698 347.386 395.928C339.262 415.636 331.754 435.551 318.461 453.896C313.968 460.011 308.737 465.878 301.598 470.423C290.705 477.158 277.904 481.662 263.934 484.306C238.948 489.016 213.1 488.768 187.621 490.71C176.236 491.578 164.789 492.445 154.204 495.916C144.911 498.932 136.233 504.634 137.772 513.641C138.88 520.335 142.018 526.367 146.696 532.11C154.573 541.654 164.051 550.331 173.836 558.801C194.637 576.981 214.331 595.532 222.331 619ZM224.239 617.348C215.931 594.21 196.607 575.989 175.744 557.851C166.574 549.794 156.973 541.034 148.85 531.366C144.049 525.334 141.218 519.508 140.234 513.435C138.634 504.303 148.973 499.469 155.25 497.403C165.405 494.098 176.667 493.23 187.868 492.363C195.745 491.743 203.869 491.33 211.684 490.917C229.101 490.049 247.133 489.14 264.611 485.917C279.566 483.108 292.613 478.273 303.26 471.663C311.629 466.333 317.168 459.391 320.676 454.599C332.862 437.824 340.308 419.52 347.57 401.754L349.724 396.341C355.202 383.368 358.771 371.014 360.617 358.619C361.971 349.57 361.048 340.15 357.848 330.605C356.802 327.341 355.571 324.119 354.402 320.896C351.817 313.665 349.232 306.228 347.201 298.874C342.77 282.182 344.678 267.638 353.171 254.458C361.602 241.112 380.065 227.684 402.466 227.684C403.143 227.684 403.882 227.684 404.62 227.725C416.067 228.097 426.16 231.568 436.191 238.633C443.7 243.88 451.085 249.417 458.224 254.788C461.424 257.185 464.686 259.622 467.886 262.019C482.595 272.844 500.626 282.182 523.09 290.445C527.09 291.932 531.152 293.379 535.152 294.866C546.476 299.039 558.107 303.295 569.246 307.922C578.785 311.889 587.155 316.888 594.048 322.673C602.726 330.027 606.295 339.241 605.372 351.636C604.51 363.246 600.325 374.898 591.648 389.524C582.724 404.522 567.831 414.108 547.214 418.115C522.105 423.074 493.611 428.651 468.132 438.733C449.731 446.005 432.191 454.64 415.944 464.556C384.127 483.975 361.725 508.724 341.539 532.399C328.492 547.521 316.368 563.139 305.475 579.046C295.752 593.384 289.413 605.613 285.597 617.348H224.239Z" fill="black"/>
<path fill-rule="evenodd" clip-rule="evenodd" d="M1463.9 438.027C1473.69 438.027 1483.55 437.531 1493.53 436.579C1508.59 435.006 1522.43 430.288 1537 427.267V328.732C1530.08 327.574 1523.22 326.415 1516.24 325.173C1499.53 322.359 1482.82 320.58 1465.98 320.58C1452.39 320.58 1438.67 321.738 1424.96 324.387C1392.02 330.76 1360.55 352.238 1357.13 377.979C1354.37 398.257 1366.43 417.749 1391.9 426.605C1414.98 434.675 1439.16 438.027 1463.9 438.027ZM1463.9 436.413C1437.94 436.413 1414.74 432.689 1393 425.116C1369.55 416.963 1356.76 399.002 1359.51 378.145C1363.06 351.866 1396.25 331.671 1425.63 326.001C1438.68 323.477 1451.9 322.277 1465.98 322.277C1481.41 322.277 1497.69 323.725 1515.69 326.787C1521.94 327.863 1528.24 328.981 1534.55 330.057V426.067C1529.84 427.061 1525.18 428.261 1520.71 429.378C1511.71 431.654 1502.59 433.93 1493.22 434.923C1483.12 435.917 1473.27 436.413 1463.9 436.413Z" fill="#003CA7"/>
<path fill-rule="evenodd" clip-rule="evenodd" d="M1059.14 539.963C1079.04 539.963 1097.35 535.232 1115.61 530.254C1140.61 523.426 1165.81 517.091 1192.09 513.141C1196.96 512.483 1202.07 511.702 1206.33 509.933C1218.87 504.585 1220.45 499.895 1215.4 491.75C1213.57 488.788 1211.44 485.991 1208.52 483.482C1200.37 476.571 1192.28 469.66 1184.12 462.666C1166.9 447.816 1152.48 431.69 1143.78 413.179C1136.42 397.341 1134.96 380.969 1135.75 367.311C1135.75 358.549 1136.11 352.667 1135.75 346.784C1135.02 337.24 1133.07 327.943 1126.56 319.346C1122.79 314.286 1117.55 309.966 1111.04 306.963C1106.11 304.701 1101.12 303.59 1096.32 303.59C1086.64 303.59 1077.76 308.074 1072.65 317.165C1068.02 325.475 1067.6 334.443 1066.93 343.164C1065.83 356.122 1067.05 369.08 1065.83 382.121C1064.07 400.797 1064.49 419.514 1064.49 438.19C1064.43 448.269 1062.79 458.224 1060.42 468.138C1057.56 480.438 1052.08 492.203 1047.82 504.297C1044.96 512.565 1040.52 520.587 1041.07 529.432C1041.49 535.849 1046.73 539.634 1055.73 539.88C1056.89 539.963 1057.98 539.963 1059.14 539.963ZM1059.14 539.963V538.276H1055.85C1046.12 537.988 1043.74 533.298 1043.5 529.349C1043.14 522.85 1045.51 516.885 1048 510.55C1048.73 508.575 1049.59 506.601 1050.25 504.708C1051.59 500.595 1053.11 496.563 1054.7 492.573C1057.8 484.716 1060.84 476.653 1062.85 468.384C1065.53 456.825 1066.87 447.199 1066.93 438.19V429.304C1066.81 413.837 1066.81 397.876 1068.27 382.244C1068.94 375.415 1068.87 368.504 1068.87 361.84C1068.81 355.711 1068.81 349.417 1069.3 343.246L1069.42 341.477C1070.09 333.456 1070.7 325.269 1074.9 317.741C1079.4 309.761 1087.25 305.236 1096.32 305.236C1100.7 305.236 1105.32 306.305 1109.58 308.321C1115.67 311.118 1120.66 315.067 1124.43 320.045C1131.18 329.013 1132.64 338.598 1133.25 346.866C1133.56 350.651 1133.5 354.435 1133.43 359.166C1133.37 361.676 1133.37 364.308 1133.37 367.27C1132.28 384.342 1135.02 399.974 1141.47 413.672C1149.44 430.621 1162.76 446.952 1182.17 463.695C1189.6 470.071 1196.96 476.242 1204.32 482.536L1206.57 484.469C1209.07 486.608 1211.08 489.117 1213.15 492.408C1217.95 500.183 1216.19 503.762 1204.99 508.493C1201.04 510.138 1195.99 510.961 1191.55 511.537C1163.92 515.692 1137.15 522.562 1114.69 528.732C1094.67 534.162 1077.88 538.276 1059.14 538.276V539.963Z" fill="#003CA7"/>
<path fill-rule="evenodd" clip-rule="evenodd" d="M387.35 445.414C389.626 445.414 392.148 445.124 394.916 444.627C407.834 442.265 419.09 437.252 430.285 432.446C451.999 423.083 473.344 413.388 494.689 403.694C508.898 397.355 522.8 390.892 534.487 381.984C545.313 373.739 552.08 364.376 551.341 352.361C552.264 343.412 546.789 335.996 538.116 329.533C527.044 321.288 513.696 315.281 499.733 310.019C480.233 302.603 460.426 295.436 442.034 286.611C436.006 283.711 429.793 280.976 423.089 278.822C419.275 277.579 415.646 276.999 412.385 276.999C402.913 276.999 396.515 281.971 396.023 290.795C395.654 296.057 396.454 301.277 397.807 306.415C401.621 323.401 401.313 340.098 395.347 356.836C389.687 372.911 381.383 388.364 376.032 404.564C373.202 413.471 370.803 422.503 371.234 431.742C371.664 440.733 377.262 445.414 387.35 445.414ZM387.35 443.716C378.615 443.716 374.063 439.655 373.694 431.659C373.264 422.379 375.786 413.347 378.431 404.937C381.26 396.402 384.951 387.909 388.58 379.705C391.717 372.414 395.039 364.832 397.746 357.209C403.528 340.968 404.327 324.23 400.206 306.125C398.73 300.241 398.176 295.394 398.484 290.837C398.914 283.213 404.081 278.656 412.385 278.656C415.338 278.656 418.598 279.195 421.981 280.313C427.763 282.178 433.546 284.539 440.558 287.937C456.49 295.56 473.651 302.064 490.198 308.32L498.564 311.511C509.821 315.778 524.399 321.827 536.332 330.652C545.498 337.57 549.68 344.614 548.881 352.444C549.557 362.884 544.329 371.958 532.58 380.907C521.323 389.483 507.606 395.946 493.335 402.326C472.483 411.773 450.892 421.592 428.994 430.996L426.595 432.074C416.445 436.424 405.927 440.94 394.239 443.053C391.717 443.467 389.38 443.716 387.35 443.716Z" fill="#003CA7"/>
<path fill-rule="evenodd" clip-rule="evenodd" d="M1449.36 409.22C1471.63 409.22 1494.13 402.201 1509.9 389.633C1519.73 381.636 1518.58 371.68 1508.87 365.232C1493.89 355.235 1476.36 351.767 1456.7 351.604H1455.13C1440.51 351.604 1426.92 353.97 1415.27 360.703C1404.84 366.701 1398.53 374.332 1399.5 384.043C1400.6 394.612 1409.33 401.875 1422.55 405.547C1431.11 408.036 1440.27 409.22 1449.36 409.22ZM1449.36 407.547C1440.33 407.547 1431.59 406.404 1423.46 404.037C1410.36 400.365 1402.9 393.428 1401.93 383.962C1401.08 375.434 1405.93 368.211 1416.79 361.886C1426.98 356.051 1439.54 353.195 1455.13 353.195H1456.7C1477.94 353.399 1493.95 357.561 1507.17 366.375C1516.39 372.577 1516.76 381.473 1508.02 388.573C1493.22 400.447 1471.2 407.547 1449.36 407.547Z" fill="black"/>
<path fill-rule="evenodd" clip-rule="evenodd" d="M209.691 394.447C217.591 394.447 224.572 391.653 229.471 386.519C232.166 383.684 233.574 380.48 234.37 377.235C237.555 365.734 234.309 354.397 232.839 342.977C231.247 331.558 230.329 320.056 231.37 308.596C232.594 295.287 234.064 282.019 234.554 268.669C234.922 257.661 233.391 246.816 227.634 236.465C223.837 229.564 217.53 226.031 208.834 226.031C206.323 226.031 203.629 226.319 200.75 226.935C191.381 228.866 182.93 232.152 174.785 236.013C149.616 248.049 124.447 260.043 99.4616 272.202C90.7045 276.515 82.0086 280.992 74.9662 286.743C58.9829 299.846 54.8799 313.032 71.2306 327.861C75.7011 331.886 80.9063 335.255 86.6015 338.212C112.812 351.768 140.308 363.885 165.416 378.468C176.377 384.835 188.013 390.421 201.546 393.502C204.302 394.118 207.058 394.447 209.691 394.447ZM209.691 392.845C207.303 392.845 204.853 392.516 202.342 391.941C188.013 388.737 175.949 382.411 167.069 377.235C151.024 367.952 133.816 359.531 117.16 351.357C107.606 346.715 97.6856 341.827 88.1324 336.898C82.1923 333.776 77.2932 330.49 73.1902 326.875C58.7991 313.772 59.9014 301.695 76.8645 287.77C83.9069 282.06 92.6028 277.583 100.931 273.557C124.814 261.891 149.249 250.185 172.825 238.929L176.194 237.327C185.441 232.932 193.463 230.139 201.485 228.496C204.118 227.962 206.568 227.674 208.834 227.674C216.489 227.674 221.878 230.755 225.368 237.04C230.39 246.159 232.533 256.182 232.104 268.628C231.737 279.349 230.696 290.235 229.655 300.832L228.859 308.514C228.001 318.536 228.491 329.545 230.39 343.1C230.757 345.606 231.125 347.989 231.492 350.494C232.962 359.162 234.37 368.116 231.982 376.948C231.063 380.604 229.594 383.315 227.389 385.615C223.041 390.257 216.672 392.845 209.691 392.845Z" fill="#003CA7"/>
<path fill-rule="evenodd" clip-rule="evenodd" d="M874.693 358.99C877.586 358.99 880.417 358.415 883.249 357.962C906.025 354.507 920.613 336.575 913.227 321.316C909.903 314.818 904.732 309.142 898.022 304.206C887.927 296.803 876.847 290.223 866.321 283.189C843.299 267.684 821.816 251.068 800.948 234.122C785.99 221.948 769.986 210.761 750.041 202.905C738.469 198.258 726.219 194.885 712.861 194.31C712.123 194.268 711.384 194.268 710.645 194.268C704.12 194.268 698.026 195.502 693.841 199.739C689.162 204.345 691.44 208.828 694.518 213.27C697.842 218.123 701.289 222.853 706.152 226.966C727.697 245.392 744.809 265.627 756.751 288.166C764.692 302.767 775.526 316.216 791.592 327.074C807.104 337.562 824.586 346.076 843.668 352.862C852.902 356.07 862.689 358.497 873.154 358.908C873.646 358.949 874.2 358.99 874.693 358.99ZM874.692 357.304C874.2 357.304 873.83 357.304 873.338 357.263C864.474 356.893 855.425 355.042 844.776 351.381C825.632 344.595 808.335 335.999 793.315 325.881C778.972 316.257 767.831 303.713 759.028 287.631C747.394 265.627 730.22 244.898 708.06 225.979C703.32 221.948 699.873 217.177 696.733 212.571C693.471 207.759 692.24 204.263 695.872 200.643C699.073 197.394 703.812 195.914 710.645 195.914C711.384 195.914 711.999 195.914 712.677 195.955C724.372 196.448 735.76 199.08 748.81 204.304C769.862 212.653 786.051 224.58 799.04 235.151C823.724 255.263 844.53 270.851 864.597 284.382C868.29 286.85 872.045 289.277 875.923 291.662C882.633 296.104 889.65 300.587 896.237 305.317C902.947 310.211 907.871 315.805 910.887 321.851C914.334 328.884 912.857 336.863 907.009 343.731C901.469 350.23 892.544 354.795 882.633 356.358L881.648 356.481C879.247 356.893 876.97 357.304 874.692 357.304Z" fill="#003CA7"/>
<path fill-rule="evenodd" clip-rule="evenodd" d="M1260.04 274.044C1266.97 274.044 1274.58 272.101 1283.47 268.008C1303.22 258.872 1319.9 247.42 1333.15 233.612C1338.86 227.783 1343.7 221.54 1345.73 214.43C1347.44 208.683 1342.66 203.598 1334.63 202.647C1330.64 202.151 1326.71 201.655 1322.66 201.655C1322.05 201.655 1321.32 201.655 1320.64 201.696C1302.24 202.565 1283.96 204.012 1265.62 206.161C1251.27 207.856 1237.1 209.923 1224.04 215.091C1213.18 219.308 1208.4 226.832 1211.59 235.39C1215.08 244.816 1220.79 253.745 1229.8 261.063C1240.11 269.455 1249.31 274.044 1260.04 274.044ZM1260.04 274.044V272.391C1250.9 272.391 1242.38 268.67 1231.7 259.988C1223.67 253.456 1217.72 245.064 1213.98 235.018C1211.1 227.287 1215.33 220.383 1225.26 216.497C1238.21 211.37 1252.56 209.427 1266.11 207.774C1283.59 205.748 1302.06 204.218 1320.82 203.35C1321.44 203.309 1322.05 203.309 1322.66 203.309C1326.41 203.309 1330.09 203.764 1334.26 204.301C1337.26 204.632 1339.84 205.748 1341.56 207.402C1343.4 209.262 1344.07 211.618 1343.33 214.099C1341.62 220.052 1337.88 225.84 1331.07 232.744C1318.06 246.221 1301.63 257.632 1282.06 266.603C1273.72 270.53 1266.42 272.391 1260.04 272.391V274.044Z" fill="#003CA7"/>
<path fill-rule="evenodd" clip-rule="evenodd" d="M155.935 316.148H156.246C163.823 316.148 169.227 312.502 172.643 307.289C175.376 303.219 177.177 298.938 177.053 294.614C176.99 288.044 171.897 281.431 162.891 281.431C160.159 281.431 157.177 281.982 153.823 283.381C149.414 285.246 144.693 286.814 141.277 289.612C137.116 292.961 134.197 296.776 133.327 301.142C133.638 303.516 134.569 305.593 136.122 307.543C140.594 313.054 147.55 316.148 155.935 316.148ZM155.935 316.148V314.452C148.482 314.452 142.395 311.739 138.296 306.695C136.867 304.872 136.06 303.007 135.812 301.354C136.557 297.624 138.979 294.105 143.14 290.714C145.687 288.637 149.103 287.238 152.643 285.797L155.066 284.822C157.861 283.677 160.469 283.126 162.891 283.126C170.407 283.126 174.506 289.061 174.568 294.699C174.692 298.387 173.264 302.414 170.345 306.61C167.984 310.171 163.699 314.452 156.184 314.452L155.935 316.148Z" fill="black"/>
</g>
</svg>
