<svg width="296" height="395" viewBox="0 0 296 395" fill="none" xmlns="http://www.w3.org/2000/svg">
<g filter="url(#filter0_d)">
<path d="M195.616 96.3314C248.683 96.1957 291.812 139.105 291.948 192.171V192.171L195.862 192.417L195.616 96.3314V96.3314Z" fill="#FF5470"/>
<path d="M195.616 96.3309V96.3309C195.752 149.398 152.843 192.527 99.7761 192.662V192.662L99.5305 96.5765L195.616 96.3309Z" fill="#4285F4"/>
<path d="M4.24512 96.8207V96.8207C57.3118 96.685 100.441 139.594 100.576 192.661V192.661L4.49075 192.906L4.24512 96.8207Z" fill="#34A853"/>
<path d="M291.947 192.171V192.171C292.083 245.238 249.174 288.367 196.107 288.503V288.503L195.862 192.417L291.947 192.171Z" fill="#FDE24F"/>
<path d="M4 0.734955L100.086 0.489323L100.331 96.5751V96.5751C47.2647 96.7107 4.13566 53.8016 4 0.734955V0.734955Z" fill="#FF5470"/>
<path d="M99.2842 0.491257V0.491257C152.351 0.355598 195.48 43.2647 195.616 96.3314V96.3314L99.5298 96.577L99.2842 0.491257Z" fill="#FDE24F"/>
<path d="M196.107 288.503V288.503C143.041 288.638 99.9117 245.729 99.7761 192.663V192.663L195.862 192.417L196.107 288.503Z" fill="#4285F4"/>
<path d="M100.699 240.704C100.767 267.237 79.3127 288.801 52.7794 288.869V288.869C26.2461 288.937 4.68154 267.483 4.61371 240.949V240.949C4.54588 214.416 26.0004 192.851 52.5338 192.784V192.784C79.0671 192.716 100.632 214.17 100.699 240.704V240.704Z" fill="#FDE24F"/>
<path d="M196.107 288.503V288.503C196.243 341.569 153.334 384.699 100.267 384.834V384.834L100.022 288.748L196.107 288.503Z" fill="#DE4437"/>
<path d="M196.107 288.503V288.503C196.243 341.569 239.372 384.479 292.439 384.343V384.343L292.193 288.257L196.107 288.503Z" fill="#34A853"/>
<path d="M101.067 384.832V384.832C48.0007 384.967 4.87167 342.058 4.73601 288.992V288.992L100.822 288.746L101.067 384.832Z" fill="#4285F4"/>
</g>
<defs>
<filter id="filter0_d" x="0.797132" y="0.489319" width="294.845" height="393.548" filterUnits="userSpaceOnUse" color-interpolation-filters="sRGB">
<feFlood flood-opacity="0" result="BackgroundImageFix"/>
<feColorMatrix in="SourceAlpha" type="matrix" values="0 0 0 0 0 0 0 0 0 0 0 0 0 0 0 0 0 0 127 0" result="hardAlpha"/>
<feOffset dy="6"/>
<feGaussianBlur stdDeviation="1.60143"/>
<feComposite in2="hardAlpha" operator="out"/>
<feColorMatrix type="matrix" values="0 0 0 0 0 0 0 0 0 0 0 0 0 0 0 0 0 0 0.25 0"/>
<feBlend mode="normal" in2="BackgroundImageFix" result="effect1_dropShadow"/>
<feBlend mode="normal" in="SourceGraphic" in2="effect1_dropShadow" result="shape"/>
</filter>
</defs>
</svg>
